<svg width="38" height="34" viewBox="0 0 38 34" fill="none" xmlns="http://www.w3.org/2000/svg">
<path fill-rule="evenodd" clip-rule="evenodd" d="M1.88867 21.2072V7.448H29.4072V12.2784C29.4072 12.6926 29.743 13.0284 30.1572 13.0284C30.5714 13.0284 30.9072 12.6926 30.9072 12.2784V3.34962C30.9072 1.7026 29.572 0.367432 27.925 0.367432H3.37086C1.72384 0.367432 0.388672 1.7026 0.388672 3.34962V21.2072C0.388672 22.8542 1.72384 24.1893 3.37086 24.1893H15.6479C16.0621 24.1893 16.3979 23.8536 16.3979 23.4393C16.3979 23.0251 16.0621 22.6893 15.6479 22.6893H3.37086C2.55227 22.6893 1.88867 22.0257 1.88867 21.2072ZM3.37086 1.86743C2.55227 1.86743 1.88867 2.53103 1.88867 3.34962V5.948H29.4072V3.34962C29.4072 2.53103 28.7436 1.86743 27.925 1.86743H3.37086Z" fill="#0DA4F5"/>
<path d="M19.1882 16.9086V10.7961C19.1882 10.3819 18.8524 10.0461 18.4382 10.0461C18.024 10.0461 17.6882 10.3819 17.6882 10.7961V16.9086C17.6882 17.3228 18.024 17.6586 18.4382 17.6586C18.8524 17.6586 19.1882 17.3228 19.1882 16.9086Z" fill="#0DA4F5"/>
<path d="M13.6077 13.0283V19.341C13.6077 19.7552 13.2719 20.091 12.8577 20.091C12.4435 20.091 12.1077 19.7552 12.1077 19.341V13.0283C12.1077 12.6141 12.4435 12.2783 12.8577 12.2783C13.2719 12.2783 13.6077 12.6141 13.6077 13.0283Z" fill="#0DA4F5"/>
<path d="M8.02734 15.2607V19.3412C8.02734 19.7554 7.69156 20.0912 7.27734 20.0912C6.86313 20.0912 6.52734 19.7554 6.52734 19.3412V15.2607C6.52734 14.8465 6.86313 14.5107 7.27734 14.5107C7.69156 14.5107 8.02734 14.8465 8.02734 15.2607Z" fill="#0DA4F5"/>
<path d="M24.7686 12.3671V13.6721C24.7686 14.0863 24.4328 14.4221 24.0186 14.4221C23.6043 14.4221 23.2686 14.0863 23.2686 13.6721V12.3671C23.2686 11.9529 23.6043 11.6171 24.0186 11.6171C24.4328 11.6171 24.7686 11.9529 24.7686 12.3671Z" fill="#0DA4F5"/>
<path fill-rule="evenodd" clip-rule="evenodd" d="M25.4361 15.9927C22.0816 15.9927 19.3623 18.712 19.3623 22.0665C19.3623 25.4209 22.0816 28.1403 25.4361 28.1403C26.961 28.1403 28.3546 27.5784 29.4212 26.6503L31.0375 28.2667L30.7165 28.5877C30.4236 28.8806 30.4236 29.3555 30.7165 29.6484L34.481 33.4129C34.7739 33.7058 35.2488 33.7058 35.5416 33.4129L37.3917 31.5628C37.6846 31.2699 37.6846 30.7951 37.3917 30.5022L33.6272 26.7377C33.3343 26.4448 32.8594 26.4448 32.5665 26.7377L32.0982 27.206L30.4246 25.5324C31.1088 24.5495 31.5099 23.3548 31.5099 22.0665C31.5099 18.712 28.7906 15.9927 25.4361 15.9927ZM20.8623 22.0665C20.8623 19.5404 22.9101 17.4927 25.4361 17.4927C27.9621 17.4927 30.0099 19.5404 30.0099 22.0665C30.0099 24.5925 27.9621 26.6403 25.4361 26.6403C22.9101 26.6403 20.8623 24.5925 20.8623 22.0665ZM35.0113 31.8219L32.3075 29.118L33.0969 28.3287L35.8007 31.0325L35.0113 31.8219Z" fill="#0DA4F5"/>
</svg>
