<svg width="19" height="33" viewBox="0 0 19 33" fill="none" xmlns="http://www.w3.org/2000/svg">
<path d="M10.8242 14.4451C11.193 11.6158 13.6647 9.05479 18.1859 6.82312L19 6.42121L15.6622 0.185608L14.9087 0.572076C5.34781 5.47616 0.5 12.4068 0.5 21.1716C0.5 24.1958 1.44871 26.8078 3.31998 28.935C5.21749 31.0919 7.52022 32.1856 10.1647 32.1856C12.5408 32.1856 14.5557 31.3294 16.1533 29.6406C17.7405 27.9626 18.5452 25.8784 18.5452 23.4457C18.5452 21.147 17.7323 19.0984 16.1291 17.3568C14.715 15.8207 12.9333 14.8435 10.8242 14.4451ZM14.8988 28.4256C13.6239 29.7734 12.0753 30.4285 10.1647 30.4285C8.00737 30.4285 6.19277 29.5578 4.61724 27.7667C3.01522 25.9456 2.23644 23.7884 2.23644 21.1716C2.23644 17.1544 3.35434 13.5277 5.5589 10.3922C7.66243 7.40062 10.8174 4.75941 14.9443 2.53338L16.6165 5.65716C11.5875 8.32384 9.03949 11.5294 9.03949 15.1943V15.979L9.80999 16.0673C11.8855 16.3051 13.5367 17.1186 14.8585 18.5544C16.1708 19.98 16.8087 21.58 16.8087 23.4456C16.8088 25.438 16.184 27.0668 14.8988 28.4256Z" fill="#0DA4F5"/>
</svg>
