<svg width="31" height="30" viewBox="0 0 31 30" fill="none" xmlns="http://www.w3.org/2000/svg">
<path fill-rule="evenodd" clip-rule="evenodd" d="M15.5 3.4375C9.11421 3.4375 3.9375 8.61421 3.9375 15C3.9375 21.3858 9.11421 26.5625 15.5 26.5625C21.8858 26.5625 27.0625 21.3858 27.0625 15C27.0625 8.61421 21.8858 3.4375 15.5 3.4375ZM2.0625 15C2.0625 7.57867 8.07867 1.5625 15.5 1.5625C22.9213 1.5625 28.9375 7.57867 28.9375 15C28.9375 22.4213 22.9213 28.4375 15.5 28.4375C8.07867 28.4375 2.0625 22.4213 2.0625 15ZM15.5 9.0625C16.0178 9.0625 16.4375 9.48223 16.4375 10V14.6117L19.2879 17.4621C19.654 17.8282 19.654 18.4218 19.2879 18.7879C18.9218 19.154 18.3282 19.154 17.9621 18.7879L14.8371 15.6629C14.6613 15.4871 14.5625 15.2486 14.5625 15V10C14.5625 9.48223 14.9822 9.0625 15.5 9.0625Z" fill="white"/>
</svg>
