<svg width="38" height="38" viewBox="0 0 38 38" fill="none" xmlns="http://www.w3.org/2000/svg">
<path d="M8.72679 31.5H7.69312C7.14083 31.5 6.69312 31.0523 6.69312 30.5V7.5C6.69312 6.94772 7.14083 6.5 7.69312 6.5H30.6931C31.2454 6.5 31.6931 6.94772 31.6931 7.5V9.0681" stroke="#0DA4F5" stroke-width="1.5" stroke-linecap="round"/>
<path d="M3.72679 26.4853H2.69312C2.14083 26.4853 1.69312 26.0376 1.69312 25.4853V2.48535C1.69312 1.93307 2.14083 1.48535 2.69312 1.48535H25.6931C26.2454 1.48535 26.6931 1.93307 26.6931 2.48535V4.05346" stroke="#0DA4F5" stroke-width="1.5" stroke-linecap="round"/>
<rect x="11.307" y="11.5146" width="25" height="25" rx="1" stroke="#0DA4F5" stroke-width="1.5" stroke-linecap="round"/>
<rect x="14.845" y="14.9495" width="6" height="6" rx="0.445643" fill="#0DA4F5"/>
</svg>
