<svg width="50" height="50" viewBox="0 0 50 50" fill="none" xmlns="http://www.w3.org/2000/svg">
<g clip-path="url(#clip0_261_666)">
<path d="M46.6562 12.5C46.3063 11.8984 45.825 11.3687 45.2953 11.0609L26.9281 0.45625C25.8703 -0.154688 24.1359 -0.154688 23.0781 0.45625L4.71094 11.0609C3.65313 11.6719 2.78125 13.175 2.78125 14.3969V35.6047C2.78125 36.2156 3 36.8984 3.35 37.5C3.69219 38.1016 4.18125 38.6312 4.71094 38.9328L23.0688 49.5438C24.1359 50.1547 25.8609 50.1547 26.9188 49.5438L45.2859 38.9328C45.8156 38.6312 46.2969 38.1016 46.6469 37.5C46.9969 36.8984 47.2078 36.2141 47.2078 35.6047V14.3969C47.2156 13.7859 46.9969 13.1031 46.6562 12.5016V12.5ZM25 39.8109C16.8297 39.8109 10.1891 33.1719 10.1891 25C10.1891 16.8281 16.8281 10.1891 25 10.1891C30.2891 10.1969 35.1734 13.0203 37.825 17.5844L31.4125 21.2969C30.0859 19.0094 27.6453 17.6016 25 17.5922C20.9141 17.5922 17.5938 20.9125 17.5938 24.9984C17.5938 29.0844 20.9141 32.4047 25 32.4047C27.6453 32.3969 30.0859 30.9875 31.4125 28.7L37.825 32.4125C35.1734 36.9766 30.2891 39.8 25 39.8078V39.8109ZM39.8109 25.8234H38.1672V27.4672H36.5156V25.8234H34.8719V24.1781H36.5156V22.5344H38.1672V24.1781H39.8109V25.8234ZM45.9797 25.8234H44.3359V27.4672H42.6922V25.8234H41.0484V24.1781H42.6922V22.5344H44.3359V24.1781H45.9797V25.8234Z" fill="#A7A8AC"/>
</g>
<defs>
<clipPath id="clip0_261_666">
<rect width="50" height="50" fill="white"/>
</clipPath>
</defs>
</svg>
