<svg width="36" height="30" viewBox="0 0 36 30" fill="none" xmlns="http://www.w3.org/2000/svg">
<path d="M6.01009 5.11907C6.01009 5.81002 5.44996 6.37015 4.75901 6.37015C4.06806 6.37015 3.50794 5.81002 3.50794 5.11907C3.50794 4.42812 4.06806 3.868 4.75901 3.868C5.44996 3.868 6.01009 4.42812 6.01009 5.11907Z" fill="#0DA4F5"/>
<path fill-rule="evenodd" clip-rule="evenodd" d="M0.255859 2.36566C0.255859 1.39916 1.03936 0.615662 2.00586 0.615662H28.3636C29.3301 0.615662 30.1136 1.39916 30.1136 2.36566V7.87212C30.1136 8.83861 29.3301 9.62212 28.3636 9.62212H2.00586C1.03936 9.62212 0.255859 8.83861 0.255859 7.87212V2.36566ZM2.00586 2.11566C1.86779 2.11566 1.75586 2.22759 1.75586 2.36566V7.87212C1.75586 8.01019 1.86779 8.12212 2.00586 8.12212H28.3636C28.5016 8.12212 28.6136 8.01019 28.6136 7.87212V2.36566C28.6136 2.22759 28.5016 2.11566 28.3636 2.11566H2.00586Z" fill="#0DA4F5"/>
<path d="M4.75901 16.2509C5.44996 16.2509 6.01009 15.6908 6.01009 14.9999C6.01009 14.3089 5.44996 13.7488 4.75901 13.7488C4.06806 13.7488 3.50794 14.3089 3.50794 14.9999C3.50794 15.6908 4.06806 16.2509 4.75901 16.2509Z" fill="#0DA4F5"/>
<path d="M6.01009 24.8809C6.01009 25.5719 5.44996 26.132 4.75901 26.132C4.06806 26.132 3.50794 25.5719 3.50794 24.8809C3.50794 24.19 4.06806 23.6298 4.75901 23.6298C5.44996 23.6298 6.01009 24.19 6.01009 24.8809Z" fill="#0DA4F5"/>
<path d="M2.00586 10.4967C1.03936 10.4967 0.255859 11.2802 0.255859 12.2467V17.7532C0.255859 18.7196 1.03936 19.5032 2.00586 19.5032H17.2544C17.6686 19.5032 18.0044 19.1674 18.0044 18.7532C18.0044 18.3389 17.6686 18.0032 17.2544 18.0032H2.00586C1.86779 18.0032 1.75586 17.8912 1.75586 17.7532V12.2467C1.75586 12.1086 1.86779 11.9967 2.00586 11.9967H28.3636C28.5016 11.9967 28.6136 12.1086 28.6136 12.2467V14.4219C28.6136 14.8361 28.9494 15.1719 29.3636 15.1719C29.7778 15.1719 30.1136 14.8361 30.1136 14.4219V12.2467C30.1136 11.2802 29.3301 10.4967 28.3636 10.4967H2.00586Z" fill="#0DA4F5"/>
<path d="M2.00586 21.8778C1.86779 21.8778 1.75586 21.9897 1.75586 22.1278V27.6342C1.75586 27.7723 1.86779 27.8842 2.00586 27.8842H11.6106C12.0248 27.8842 12.3606 28.22 12.3606 28.6342C12.3606 29.0484 12.0248 29.3842 11.6106 29.3842H2.00586C1.03936 29.3842 0.255859 28.6007 0.255859 27.6342V22.1278C0.255859 21.1613 1.03936 20.3778 2.00586 20.3778H11.6106C12.0248 20.3778 12.3606 20.7135 12.3606 21.1278C12.3606 21.542 12.0248 21.8778 11.6106 21.8778H2.00586Z" fill="#0DA4F5"/>
<path fill-rule="evenodd" clip-rule="evenodd" d="M17.8728 21.9032C17.8245 21.9032 17.7764 21.9042 17.7285 21.9061C15.8214 21.9818 14.2986 23.5518 14.2986 25.4775C14.2986 27.4515 15.8988 29.0517 17.8728 29.0517L17.9138 29.0515H32.129L32.1699 29.0517C34.144 29.0517 35.7442 27.4515 35.7442 25.4775C35.7442 23.5517 34.2212 21.9816 32.3139 21.9061C32.2662 21.9042 32.2182 21.9032 32.1699 21.9032C31.7233 21.9032 31.2958 21.9851 30.9017 22.1348C30.82 21.6303 30.675 21.1471 30.475 20.6936C29.5517 18.5992 27.4574 17.1372 25.0215 17.1372C22.5856 17.1372 20.4912 18.5993 19.5679 20.6937C19.368 21.1472 19.2229 21.6304 19.1413 22.1348C18.7471 21.9852 18.3195 21.9032 17.8728 21.9032ZM17.9053 27.5515L17.8969 27.5516L17.8728 27.5517C16.7272 27.5517 15.7986 26.623 15.7986 25.4775C15.7986 24.3319 16.7272 23.4032 17.8728 23.4032C18.1348 23.4032 18.3821 23.4511 18.6088 23.5372L20.328 24.1899L20.622 22.3746C20.9651 20.2555 22.8057 18.6372 25.0215 18.6372C27.2372 18.6372 29.0778 20.2555 29.421 22.3745L29.7149 24.1897L31.4341 23.5371C31.6608 23.451 31.908 23.4032 32.1699 23.4032C33.3155 23.4032 34.2442 24.3319 34.2442 25.4775C34.2442 26.623 33.3155 27.5517 32.1699 27.5517L32.1459 27.5516L32.1374 27.5515H17.9053Z" fill="#0DA4F5"/>
</svg>
