<svg width="28" height="35" viewBox="0 0 28 35" fill="none" xmlns="http://www.w3.org/2000/svg">
<path d="M13.561 11.1819C13.6615 10.78 13.4172 10.3728 13.0153 10.2724C12.6135 10.1719 12.2063 10.4162 12.1058 10.8181L10.1058 18.8181C10.0054 19.2199 10.2497 19.6271 10.6515 19.7276C11.0534 19.8281 11.4606 19.5837 11.561 19.1819L13.561 11.1819Z" fill="#0DA4F5"/>
<path d="M15.3453 10.4305C15.6598 10.161 16.1333 10.1974 16.4029 10.5119L19.4029 14.0119C19.6436 14.2927 19.6436 14.7072 19.4029 14.9881L16.4029 18.4881C16.1333 18.8026 15.6598 18.839 15.3453 18.5694C15.0308 18.2998 14.9944 17.8264 15.264 17.5119L17.8456 14.5L15.264 11.4881C14.9944 11.1736 15.0308 10.7001 15.3453 10.4305Z" fill="#0DA4F5"/>
<path d="M8.56943 11.4881C8.83899 11.1736 8.80257 10.7001 8.48808 10.4305C8.17358 10.161 7.70011 10.1974 7.43054 10.5119L4.43054 14.0119C4.1898 14.2927 4.1898 14.7072 4.43054 14.9881L7.43054 18.4881C7.70011 18.8026 8.17358 18.839 8.48808 18.5694C8.80257 18.2998 8.83899 17.8264 8.56943 17.5119L5.98779 14.5L8.56943 11.4881Z" fill="#0DA4F5"/>
<path fill-rule="evenodd" clip-rule="evenodd" d="M1.64771 0C0.737707 0 0 0.737707 0 1.64771V28.3523C0 29.2623 0.737707 30 1.64771 30H21.3523C22.2623 30 23 29.2623 23 28.3523V1.64771C23 0.737707 22.2623 0 21.3523 0H1.64771ZM21.3523 1.5H1.64771C1.56613 1.5 1.5 1.56613 1.5 1.64771V28.3523C1.5 28.4339 1.56613 28.5 1.64771 28.5H21.3523C21.4339 28.5 21.5 28.4339 21.5 28.3523V1.64771C21.5 1.56613 21.4339 1.5 21.3523 1.5Z" fill="#0DA4F5"/>
<path d="M24.4365 5V6.5H26.5042V8.32715H28.0042V5.75C28.0042 5.33579 27.6684 5 27.2542 5H24.4365Z" fill="#0DA4F5"/>
<path d="M28.0042 12.674H26.5042V17.8283H28.0042V12.674Z" fill="#0DA4F5"/>
<path d="M28.0042 22.1752H26.5042V27.3295H28.0042V22.1752Z" fill="#0DA4F5"/>
<path d="M6.5 31.6764H5V34.2536C5 34.6678 5.33579 35.0036 5.75 35.0036H8.56771V33.5036H6.5V31.6764Z" fill="#0DA4F5"/>
<path d="M28.0042 31.6764H26.5042V33.5036H24.4365V35.0036H27.2542C27.6684 35.0036 28.0042 34.6678 28.0042 34.2536V31.6764Z" fill="#0DA4F5"/>
<path d="M13.6844 33.5036V35.0036H19.3198V33.5036H13.6844Z" fill="#0DA4F5"/>
</svg>
