<svg width="36" height="36" viewBox="0 0 36 36" fill="none" xmlns="http://www.w3.org/2000/svg">
<path fill-rule="evenodd" clip-rule="evenodd" d="M25.3233 7.16016C23.4787 7.16016 21.9834 8.65546 21.9834 10.5C21.9834 12.3445 23.4787 13.8398 25.3233 13.8398C27.1678 13.8398 28.6631 12.3445 28.6631 10.5C28.6631 8.65546 27.1678 7.16016 25.3233 7.16016ZM23.4834 10.5C23.4834 9.48388 24.3072 8.66016 25.3233 8.66016C26.3394 8.66016 27.1631 9.48388 27.1631 10.5C27.1631 11.5161 26.3394 12.3398 25.3233 12.3398C24.3072 12.3398 23.4834 11.5161 23.4834 10.5Z" fill="#0DA4F5"/>
<path fill-rule="evenodd" clip-rule="evenodd" d="M23.7161 0.75C23.3227 0.75 22.9961 1.05409 22.968 1.44656L22.8267 3.42578C22.4643 3.55368 22.1147 3.70859 21.7804 3.88806L20.3559 2.6218C20.0591 2.35798 19.6081 2.37123 19.3273 2.65203L17.4752 4.5041C17.1944 4.7849 17.1811 5.2359 17.445 5.5327L18.7113 6.95729C18.5318 7.29153 18.3769 7.64104 18.2491 8.00339L16.2698 8.14476C15.8774 8.1728 15.5733 8.49938 15.5733 8.89286V12.1071C15.5733 12.5006 15.8774 12.8272 16.2698 12.8552L18.2491 12.9966C18.3619 13.3162 18.4957 13.6259 18.6488 13.9238L17.4451 15.278C17.1813 15.5748 17.1945 16.0258 17.4753 16.3066L19.3274 18.1587C19.6082 18.4395 20.0592 18.4527 20.356 18.1889L21.6489 17.0396C22.0227 17.2501 22.4165 17.4294 22.8267 17.5742L22.968 19.5534C22.9961 19.9459 23.3227 20.25 23.7161 20.25H26.9304C27.3239 20.25 27.6505 19.9459 27.6785 19.5534L27.8199 17.5742C28.1876 17.4445 28.542 17.2869 28.8807 17.1041L30.1013 18.1891C30.3981 18.4529 30.8492 18.4397 31.13 18.1589L32.982 16.3068C33.2628 16.026 33.2761 15.575 33.0123 15.2782L31.9273 14.0576C32.1101 13.7189 32.2677 13.3643 32.3975 12.9966L34.3767 12.8552C34.7692 12.8272 35.0733 12.5006 35.0733 12.1071V8.89286C35.0733 8.49938 34.7692 8.1728 34.3767 8.14476L32.3975 8.00339C32.2527 7.59318 32.0734 7.19943 31.8629 6.82565L33.0124 5.53253C33.2762 5.23573 33.263 4.78472 32.9822 4.50393L31.1301 2.65185C30.8493 2.37106 30.3983 2.3578 30.1015 2.62163L28.7471 3.82551C28.4491 3.67239 28.1395 3.53858 27.8199 3.42578L27.6785 1.44656C27.6505 1.05409 27.3239 0.75 26.9304 0.75H23.7161ZM24.2865 4.04194L24.4145 2.25H26.2321L26.3601 4.04194C26.3828 4.3594 26.6033 4.62798 26.9103 4.71194C27.4602 4.86233 27.9788 5.08913 28.4541 5.38046C28.7358 5.55315 29.0973 5.52112 29.3443 5.30159L30.5695 4.21256L31.4214 5.06454L30.3718 6.24538C30.1447 6.50089 30.1191 6.87767 30.3096 7.16155C30.6655 7.69198 30.9388 8.28187 31.1113 8.91295C31.1953 9.21995 31.4639 9.44053 31.7813 9.4632L33.5733 9.5912V11.4088L31.7813 11.5368C31.4639 11.5595 31.1953 11.7801 31.1113 12.087C30.9492 12.6801 30.6981 13.2367 30.3731 13.7418C30.191 14.0248 30.2197 14.3944 30.4433 14.6459L31.4213 15.7462L30.5693 16.5982L29.469 15.6201C29.2175 15.3965 28.8479 15.3678 28.5649 15.5499C28.0599 15.8749 27.5033 16.1259 26.9103 16.2881C26.6033 16.372 26.3828 16.6406 26.3601 16.9581L26.2321 18.75H24.4145L24.2865 16.9581C24.2638 16.6406 24.0432 16.372 23.7362 16.2881C23.1052 16.1155 22.5153 15.8422 21.9848 15.4863C21.7009 15.2958 21.3242 15.3214 21.0686 15.5485L19.888 16.598L19.036 15.746L20.1249 14.521C20.3444 14.2741 20.3764 13.9125 20.2037 13.6308C19.9124 13.1556 19.6856 12.637 19.5352 12.087C19.4513 11.78 19.1827 11.5595 18.8652 11.5368L17.0733 11.4088V9.5912L18.8652 9.4632C19.1827 9.44053 19.4513 9.21995 19.5352 8.91295C19.6961 8.32478 19.9444 7.7724 20.2655 7.27058C20.4466 6.98772 20.4175 6.61901 20.1944 6.36801L19.0359 5.06471L19.8879 4.21274L21.1911 5.3712C21.4421 5.59431 21.8109 5.62337 22.0937 5.44234C22.5956 5.12113 23.148 4.87281 23.7362 4.71194C24.0432 4.62798 24.2638 4.3594 24.2865 4.04194Z" fill="#0DA4F5"/>
<path d="M8.51124 3.74683C10.3114 2.19084 12.3755 1.39197 14.0034 1.09002L14.0022 1.09116C14.0479 1.08244 14.0951 1.07788 14.1434 1.07788C14.5576 1.07788 14.8934 1.41367 14.8934 1.82788C14.8934 2.21425 14.6013 2.53239 14.2258 2.57341L14.226 2.57439C12.8398 2.83999 11.0507 3.5345 9.49216 4.88165C7.69537 6.43477 6.17445 8.87993 5.94599 12.6356C5.9202 13.0596 5.80647 13.4927 5.58486 13.8848L2.45928 19.4141C2.39221 19.5328 2.43253 19.6833 2.54992 19.7525L5.88072 21.7166L6.59891 28.4928C6.72021 29.6372 7.68554 30.5056 8.83638 30.5056H12.9857V34.5001C12.9857 34.9144 12.6499 35.2501 12.2357 35.2501C11.8215 35.2501 11.4857 34.9144 11.4857 34.5001V32.0056H8.83638C6.91831 32.0056 5.30943 30.5582 5.10727 28.6509L4.46863 22.6253L1.788 21.0446C0.96623 20.56 0.684002 19.5065 1.15346 18.676L4.27905 13.1466C4.37629 12.9746 4.43521 12.7673 4.44876 12.5445C4.70197 8.38188 6.41165 5.56169 8.51124 3.74683Z" fill="#0DA4F5"/>
<path d="M25.6078 32.6906C25.6078 29.6326 25.9058 26.5783 26.6027 23.6028L26.6124 23.6046C26.6436 23.219 26.9664 22.9158 27.36 22.9158C27.7742 22.9158 28.11 23.2516 28.11 23.6658C28.11 23.7427 28.0984 23.8169 28.0769 23.8867C27.4006 26.751 27.1078 29.7082 27.1078 32.6906V34.5001C27.1078 34.9144 26.772 35.2501 26.3578 35.2501C25.9435 35.2501 25.6078 34.9144 25.6078 34.5001V32.6906Z" fill="#0DA4F5"/>
</svg>
