<svg width="150" height="50" viewBox="0 0 150 50" fill="none" xmlns="http://www.w3.org/2000/svg">
<path d="M11.3201 15.1395C11.0279 15.1395 10.9549 15.0091 11.101 14.8137L12.6346 13.0543C12.7807 12.8589 13.1459 12.7285 13.438 12.7285H39.5106C39.8028 12.7285 39.8758 12.924 39.7297 13.1195L38.4882 14.8137C38.3421 15.0091 37.9769 15.2046 37.7578 15.2046L11.3201 15.1395ZM0.29213 21.1342C0 21.1342 -0.0730326 21.0039 0.0730326 20.8084L1.60672 19.0491C1.75278 18.8536 2.11794 18.7233 2.41008 18.7233H35.7129C36.0051 18.7233 36.1511 18.9187 36.0781 19.1142L35.4938 20.6781C35.4208 20.9387 35.1287 21.069 34.8365 21.069L0.29213 21.1342ZM17.966 27.1289C17.6739 27.1289 17.6009 26.9334 17.7469 26.7379L18.7694 25.1089C18.9154 24.9134 19.2076 24.718 19.4997 24.718H34.1062C34.3983 24.718 34.5444 24.9134 34.5444 25.1741L34.3983 26.7379C34.3983 26.9986 34.1062 27.194 33.8871 27.194L17.966 27.1289ZM93.7738 13.9666C89.1728 15.0091 86.0324 15.7911 81.5044 16.8336C80.4089 17.0943 80.3358 17.1594 79.3864 16.182C78.2909 15.0743 77.4876 14.3575 75.9539 13.7059C71.3528 11.686 66.8979 12.2724 62.735 14.6833C57.7688 17.5504 55.2126 21.7858 55.2857 27.0637C55.3587 32.2765 59.3755 36.5771 65.1451 37.2938C70.1113 37.8803 74.2741 36.3164 77.5606 32.9933C78.2179 32.2765 78.8022 31.4946 79.5325 30.5824H65.4372C63.9035 30.5824 63.5383 29.7353 64.0496 28.6276C64.999 26.6076 66.7518 23.2193 67.7742 21.5251C67.9933 21.1342 68.5046 20.4826 69.6001 20.4826H96.1839C96.0378 22.2419 96.0379 24.0012 95.7457 25.7605C94.9424 30.452 92.9705 34.7526 89.757 38.5319C84.4987 44.7221 77.6336 48.5665 68.9428 49.609C61.7856 50.4561 55.1396 49.2181 49.297 45.3085C43.8926 41.6595 40.8252 36.8377 40.0219 30.843C39.0724 23.7406 41.4095 17.3549 46.2296 11.7511C51.4149 5.69128 58.28 1.84684 66.6788 0.478487C73.5438 -0.629232 80.1167 0.0875269 86.0324 3.67132C89.9031 5.95192 92.6784 9.07959 94.5042 12.8589C94.9424 13.4453 94.6502 13.7711 93.7738 13.9666Z" fill="#636363"/>
<path d="M117.948 50C111.302 49.8697 105.24 48.1756 100.128 44.266C95.8188 40.9428 93.1166 36.7074 92.2402 31.6901C90.9257 24.327 93.1897 17.811 98.1559 12.0118C103.487 5.75646 109.914 2.49847 118.605 1.13011C126.054 -0.042769 133.065 0.60883 139.419 4.45326C145.189 7.9719 148.767 12.7286 149.717 18.9839C150.958 27.7805 148.11 34.9481 141.318 41.0731C136.498 45.4388 130.582 48.1756 123.79 49.4136C121.818 49.7394 119.847 49.8046 117.948 50ZM135.329 23.6754C135.256 22.8284 135.256 22.1768 135.11 21.5252C133.796 15.0743 127.15 11.4254 120.212 12.8589C113.42 14.2272 109.038 18.0717 107.431 24.1967C106.116 29.2792 108.892 34.4268 114.15 36.5119C118.167 38.0758 122.184 37.8803 126.054 36.121C131.824 33.4494 134.964 29.2792 135.329 23.6754Z" fill="#636363"/>
</svg>
