<svg width="34" height="32" viewBox="0 0 34 32" fill="none" xmlns="http://www.w3.org/2000/svg">
<path d="M29.4429 0.585403C29.0893 0.36982 28.6278 0.481779 28.4122 0.835469C28.1966 1.18916 28.3086 1.65065 28.6623 1.86623L31.1741 3.39728L29.0157 4.88502C28.6747 5.1201 28.5888 5.58714 28.8239 5.92818C29.059 6.26923 29.526 6.35513 29.867 6.12006L31.8017 4.7865V8.22409C31.8017 8.6383 32.1375 8.97409 32.5517 8.97409C32.966 8.97409 33.3017 8.6383 33.3017 8.22409V3.35862C33.3017 3.09704 33.1654 2.85435 32.9421 2.71821L29.4429 0.585403Z" fill="#0DA4F5"/>
<path d="M4.94361 0.586759C5.29655 0.369953 5.75842 0.480311 5.97523 0.833253C6.19204 1.18619 6.08168 1.64807 5.72874 1.86487L2.88722 3.61037L4.94782 4.86145C5.30188 5.07642 5.41464 5.53771 5.19968 5.89177C4.98471 6.24584 4.52342 6.3586 4.16935 6.14363L2.19824 4.94688V8.22409C2.19824 8.6383 1.86246 8.97409 1.44824 8.97409C1.03403 8.97409 0.698242 8.6383 0.698242 8.22409V3.61412C0.698242 3.35346 0.833578 3.11149 1.05568 2.97506L4.94361 0.586759Z" fill="#0DA4F5"/>
<path d="M17.0001 25.3585C17.4143 25.3585 17.7501 25.6943 17.7501 26.1085V29.3335L20.4578 27.4381C20.7972 27.2005 21.2648 27.283 21.5024 27.6224C21.7399 27.9617 21.6574 28.4294 21.318 28.6669L17.4302 31.3885C17.1719 31.5692 16.8282 31.5692 16.57 31.3885L12.682 28.6669C12.3426 28.4294 12.2601 27.9617 12.4976 27.6224C12.7352 27.2831 13.2028 27.2005 13.5422 27.4381L16.2501 29.3336V26.1085C16.2501 25.6943 16.5859 25.3585 17.0001 25.3585Z" fill="#0DA4F5"/>
<path fill-rule="evenodd" clip-rule="evenodd" d="M17.375 0.513345C17.1276 0.463307 16.8725 0.463307 16.6251 0.513345C16.3413 0.570743 16.0848 0.711501 15.8285 0.852135L15.7677 0.885434L7.45616 5.42624L7.39114 5.46165C7.12107 5.6085 6.84898 5.75644 6.64137 5.97798C6.45989 6.17164 6.32181 6.40199 6.23716 6.65394C6.13999 6.94314 6.14065 7.25285 6.1413 7.55579L6.1414 7.62926V16.5948L6.1413 16.6682C6.14065 16.9712 6.13999 17.2809 6.23716 17.5701C6.32181 17.8221 6.45989 18.0524 6.64137 18.2461C6.84897 18.4676 7.12106 18.6155 7.39114 18.7624L7.45616 18.7978L15.7677 23.3386L15.8285 23.3719C16.0848 23.5125 16.3413 23.6533 16.6251 23.7107C16.8725 23.7607 17.1276 23.7607 17.375 23.7107C17.6587 23.6533 17.9152 23.5126 18.1715 23.3719L18.2323 23.3386L26.5439 18.7978L26.6089 18.7624C26.879 18.6155 27.1511 18.4676 27.3587 18.2461C27.5401 18.0524 27.6782 17.8221 27.7629 17.5701C27.86 17.2809 27.8594 16.9712 27.8587 16.6682L27.8586 16.5948V7.62926L27.8587 7.55581C27.8594 7.25286 27.86 6.94314 27.7629 6.65394C27.6782 6.40199 27.5401 6.17164 27.3587 5.97798C27.1511 5.75644 26.879 5.6085 26.6089 5.46165L26.5439 5.42624L18.2323 0.885433L18.1716 0.852134C17.9153 0.711501 17.6588 0.570743 17.375 0.513345ZM16.9224 1.98358C16.9736 1.97323 17.0265 1.97323 17.0776 1.98358C17.1087 1.98987 17.1528 2.00491 17.5132 2.20179L25.5443 6.58939L17 11.2574L8.45573 6.58941L16.4869 2.20179C16.8472 2.00491 16.8913 1.98987 16.9224 1.98358ZM17.75 12.5569L26.3586 7.85374V16.5948C26.3586 17.0256 26.3494 17.0674 26.341 17.0924C26.3253 17.139 26.2994 17.1828 26.2641 17.2204C26.2435 17.2425 26.2066 17.2728 25.8247 17.4814L17.75 21.8929L17.75 12.5569ZM16.25 12.5569L16.25 21.8929L8.17533 17.4814C7.79345 17.2728 7.75658 17.2425 7.73589 17.2204C7.70065 17.1828 7.67472 17.139 7.65905 17.0924C7.65068 17.0674 7.6414 17.0256 7.6414 16.5948V7.85378L16.25 12.5569Z" fill="#0DA4F5"/>
</svg>
