<svg width="217" height="217" viewBox="0 0 217 217" fill="none" xmlns="http://www.w3.org/2000/svg">
<g filter="url(#filter0_dddddd_831_275)">
<path d="M98.9955 116.945C98.689 117.224 98.6664 117.698 98.945 118.005C99.2237 118.311 99.698 118.334 100.005 118.055L98.9955 116.945ZM110.5 107.5H111.25C111.25 107.086 110.914 106.75 110.5 106.75V107.5ZM102.25 106.75C101.836 106.75 101.5 107.086 101.5 107.5C101.5 107.914 101.836 108.25 102.25 108.25V106.75ZM109.75 115C109.75 115.414 110.086 115.75 110.5 115.75C110.914 115.75 111.25 115.414 111.25 115H109.75ZM108.5 120.25C108.086 120.25 107.75 120.586 107.75 121C107.75 121.414 108.086 121.75 108.5 121.75V120.25ZM95.25 108.5C95.25 108.914 95.5858 109.25 96 109.25C96.4142 109.25 96.75 108.914 96.75 108.5H95.25ZM100.005 118.055L111.005 108.055L109.995 106.945L98.9955 116.945L100.005 118.055ZM110.5 106.75H102.25V108.25H110.5V106.75ZM109.75 107.5V115H111.25V107.5H109.75ZM120.25 108.5C120.25 114.989 114.989 120.25 108.5 120.25V121.75C115.818 121.75 121.75 115.818 121.75 108.5H120.25ZM96.75 108.5C96.75 102.011 102.011 96.75 108.5 96.75V95.25C101.182 95.25 95.25 101.182 95.25 108.5H96.75ZM108.5 96.75C114.989 96.75 120.25 102.011 120.25 108.5H121.75C121.75 101.182 115.818 95.25 108.5 95.25V96.75Z" fill="white"/>
</g>
<defs>
<filter id="filter0_dddddd_831_275" x="0.75" y="0.75" width="215.5" height="215.5" filterUnits="userSpaceOnUse" color-interpolation-filters="sRGB">
<feFlood flood-opacity="0" result="BackgroundImageFix"/>
<feColorMatrix in="SourceAlpha" type="matrix" values="0 0 0 0 0 0 0 0 0 0 0 0 0 0 0 0 0 0 127 0" result="hardAlpha"/>
<feOffset/>
<feGaussianBlur stdDeviation="1.125"/>
<feColorMatrix type="matrix" values="0 0 0 0 1 0 0 0 0 1 0 0 0 0 1 0 0 0 1 0"/>
<feBlend mode="normal" in2="BackgroundImageFix" result="effect1_dropShadow_831_275"/>
<feColorMatrix in="SourceAlpha" type="matrix" values="0 0 0 0 0 0 0 0 0 0 0 0 0 0 0 0 0 0 127 0" result="hardAlpha"/>
<feOffset/>
<feGaussianBlur stdDeviation="2.25"/>
<feColorMatrix type="matrix" values="0 0 0 0 1 0 0 0 0 1 0 0 0 0 1 0 0 0 1 0"/>
<feBlend mode="normal" in2="effect1_dropShadow_831_275" result="effect2_dropShadow_831_275"/>
<feColorMatrix in="SourceAlpha" type="matrix" values="0 0 0 0 0 0 0 0 0 0 0 0 0 0 0 0 0 0 127 0" result="hardAlpha"/>
<feOffset/>
<feGaussianBlur stdDeviation="7.875"/>
<feColorMatrix type="matrix" values="0 0 0 0 1 0 0 0 0 1 0 0 0 0 1 0 0 0 1 0"/>
<feBlend mode="normal" in2="effect2_dropShadow_831_275" result="effect3_dropShadow_831_275"/>
<feColorMatrix in="SourceAlpha" type="matrix" values="0 0 0 0 0 0 0 0 0 0 0 0 0 0 0 0 0 0 127 0" result="hardAlpha"/>
<feOffset/>
<feGaussianBlur stdDeviation="15.75"/>
<feColorMatrix type="matrix" values="0 0 0 0 1 0 0 0 0 1 0 0 0 0 1 0 0 0 1 0"/>
<feBlend mode="normal" in2="effect3_dropShadow_831_275" result="effect4_dropShadow_831_275"/>
<feColorMatrix in="SourceAlpha" type="matrix" values="0 0 0 0 0 0 0 0 0 0 0 0 0 0 0 0 0 0 127 0" result="hardAlpha"/>
<feOffset/>
<feGaussianBlur stdDeviation="27"/>
<feColorMatrix type="matrix" values="0 0 0 0 1 0 0 0 0 1 0 0 0 0 1 0 0 0 1 0"/>
<feBlend mode="normal" in2="effect4_dropShadow_831_275" result="effect5_dropShadow_831_275"/>
<feColorMatrix in="SourceAlpha" type="matrix" values="0 0 0 0 0 0 0 0 0 0 0 0 0 0 0 0 0 0 127 0" result="hardAlpha"/>
<feOffset/>
<feGaussianBlur stdDeviation="47.25"/>
<feColorMatrix type="matrix" values="0 0 0 0 1 0 0 0 0 1 0 0 0 0 1 0 0 0 1 0"/>
<feBlend mode="normal" in2="effect5_dropShadow_831_275" result="effect6_dropShadow_831_275"/>
<feBlend mode="normal" in="SourceGraphic" in2="effect6_dropShadow_831_275" result="shape"/>
</filter>
</defs>
</svg>
