<svg width="27" height="27" viewBox="0 0 27 27" fill="none" xmlns="http://www.w3.org/2000/svg">
<path d="M3.9955 21.945C3.689 22.2237 3.66641 22.698 3.94504 23.0045C4.22368 23.311 4.69801 23.3336 5.0045 23.055L3.9955 21.945ZM15.5 12.5H16.25C16.25 12.0858 15.9142 11.75 15.5 11.75V12.5ZM7.25 11.75C6.83579 11.75 6.5 12.0858 6.5 12.5C6.5 12.9142 6.83579 13.25 7.25 13.25V11.75ZM14.75 20C14.75 20.4142 15.0858 20.75 15.5 20.75C15.9142 20.75 16.25 20.4142 16.25 20H14.75ZM13.5 25.25C13.0858 25.25 12.75 25.5858 12.75 26C12.75 26.4142 13.0858 26.75 13.5 26.75V25.25ZM0.25 13.5C0.25 13.9142 0.585786 14.25 1 14.25C1.41421 14.25 1.75 13.9142 1.75 13.5H0.25ZM5.0045 23.055L16.0045 13.055L14.9955 11.945L3.9955 21.945L5.0045 23.055ZM15.5 11.75H7.25V13.25H15.5V11.75ZM14.75 12.5V20H16.25V12.5H14.75ZM25.25 13.5C25.25 19.9893 19.9893 25.25 13.5 25.25V26.75C20.8178 26.75 26.75 20.8178 26.75 13.5H25.25ZM1.75 13.5C1.75 7.01065 7.01065 1.75 13.5 1.75V0.25C6.18223 0.25 0.25 6.18223 0.25 13.5H1.75ZM13.5 1.75C19.9893 1.75 25.25 7.01065 25.25 13.5H26.75C26.75 6.18223 20.8178 0.25 13.5 0.25V1.75Z" fill="white"/>
</svg>
