<svg width="36" height="40" viewBox="0 0 36 40" fill="none" xmlns="http://www.w3.org/2000/svg">
<path d="M18 22.3256C18.6936 22.3256 19.2558 22.9503 19.2558 23.7209V31.1628C19.2558 31.9334 18.6936 32.5581 18 32.5581C17.3064 32.5581 16.7442 31.9334 16.7442 31.1628V23.7209C16.7442 22.9503 17.3064 22.3256 18 22.3256Z" fill="white"/>
<path fill-rule="evenodd" clip-rule="evenodd" d="M6.69768 14.9819V12.5581C6.69768 5.62247 11.7579 0 18 0C24.2421 0 29.3023 5.62247 29.3023 12.5581V14.9819C29.6821 15.0116 30.0401 15.0502 30.3769 15.1005C31.884 15.3257 33.153 15.8073 34.1609 16.9272C35.1688 18.047 35.6023 19.457 35.8049 21.1316C36.0001 22.7446 36 24.7954 36 27.3398V27.5439C36 30.0883 36.0001 32.1391 35.8049 33.7521C35.6023 35.4267 35.1688 36.8367 34.1609 37.9566C33.153 39.0764 31.884 39.5581 30.3769 39.7832C28.9252 40.0001 27.0795 40 24.7895 40H11.2105C8.92053 40 7.07478 40.0001 5.62312 39.7832C4.11596 39.5581 2.84696 39.0764 1.8391 37.9566C0.831239 36.8367 0.397743 35.4267 0.195111 33.7521C-6.02187e-05 32.1391 -3.29459e-05 30.0883 8.87475e-07 27.544V27.3398C-3.29459e-05 24.7954 -6.02187e-05 22.7446 0.195111 21.1316C0.397743 19.457 0.831239 18.047 1.8391 16.9272C2.84696 15.8073 4.11596 15.3257 5.62312 15.1005C5.95989 15.0502 6.31786 15.0116 6.69768 14.9819ZM9.2093 12.5581C9.2093 7.16373 13.145 2.7907 18 2.7907C22.855 2.7907 26.7907 7.16373 26.7907 12.5581V14.8901C26.1653 14.8837 25.4987 14.8837 24.7896 14.8837H11.2104C10.5013 14.8837 9.83474 14.8837 9.2093 14.8901V12.5581ZM5.95778 17.8663C4.72914 18.0499 4.07851 18.3856 3.61509 18.9005C3.15167 19.4154 2.84953 20.1383 2.68434 21.5035C2.5143 22.9088 2.51163 24.7713 2.51163 27.4419C2.51163 30.1124 2.5143 31.9749 2.68434 33.3802C2.84953 34.7454 3.15167 35.4683 3.61509 35.9832C4.07851 36.4981 4.72914 36.8339 5.95778 37.0174C7.22256 37.2063 8.89884 37.2093 11.3023 37.2093H24.6977C27.1012 37.2093 28.7774 37.2063 30.0422 37.0174C31.2709 36.8339 31.9215 36.4981 32.3849 35.9832C32.8483 35.4683 33.1505 34.7454 33.3157 33.3802C33.4857 31.9749 33.4884 30.1124 33.4884 27.4419C33.4884 24.7713 33.4857 22.9088 33.3157 21.5035C33.1505 20.1383 32.8483 19.4154 32.3849 18.9005C31.9215 18.3856 31.2709 18.0499 30.0422 17.8663C28.7774 17.6774 27.1012 17.6744 24.6977 17.6744H11.3023C8.89884 17.6744 7.22256 17.6774 5.95778 17.8663Z" fill="white"/>
</svg>
