<svg xmlns="http://www.w3.org/2000/svg" fill="none" viewBox="113.58 113.58 34.83 34.83">
<g filter="url(#filter0_dddddd_1262_3466)">
<path d="M119.333 125.191C119.333 119.195 124.557 114.333 131 114.333C137.443 114.333 142.667 119.195 142.667 125.191C142.667 131.141 138.943 138.083 133.133 140.566C131.779 141.145 130.221 141.145 128.866 140.566C123.057 138.083 119.333 131.141 119.333 125.191Z" stroke="#0DA4F5" stroke-width="1.5"/>
<path d="M134.333 126C134.333 127.841 132.841 129.333 131 129.333C129.159 129.333 127.667 127.841 127.667 126C127.667 124.159 129.159 122.667 131 122.667C132.841 122.667 134.333 124.159 134.333 126Z" stroke="#0DA4F5" stroke-width="1.5"/>
<path d="M145.934 136.833C147.043 137.838 147.667 138.969 147.667 140.167C147.667 144.309 140.205 147.667 131 147.667C121.795 147.667 114.333 144.309 114.333 140.167C114.333 138.969 114.957 137.838 116.066 136.833" stroke="#0DA4F5" stroke-width="1.5" stroke-linecap="round"/>
</g>
<defs>
<filter id="filter0_dddddd_1262_3466" x="-2.4" y="-2.4" width="266.8" height="266.8" filterUnits="userSpaceOnUse" color-interpolation-filters="sRGB">
<feFlood flood-opacity="0" result="BackgroundImageFix"/>
<feColorMatrix in="SourceAlpha" type="matrix" values="0 0 0 0 0 0 0 0 0 0 0 0 0 0 0 0 0 0 127 0" result="hardAlpha"/>
<feOffset/>
<feGaussianBlur stdDeviation="1.35"/>
<feColorMatrix type="matrix" values="0 0 0 0 0.054902 0 0 0 0 0.643137 0 0 0 0 0.960784 0 0 0 1 0"/>
<feBlend mode="normal" in2="BackgroundImageFix" result="effect1_dropShadow_1262_3466"/>
<feColorMatrix in="SourceAlpha" type="matrix" values="0 0 0 0 0 0 0 0 0 0 0 0 0 0 0 0 0 0 127 0" result="hardAlpha"/>
<feOffset/>
<feGaussianBlur stdDeviation="2.7"/>
<feColorMatrix type="matrix" values="0 0 0 0 0.054902 0 0 0 0 0.643137 0 0 0 0 0.960784 0 0 0 1 0"/>
<feBlend mode="normal" in2="effect1_dropShadow_1262_3466" result="effect2_dropShadow_1262_3466"/>
<feColorMatrix in="SourceAlpha" type="matrix" values="0 0 0 0 0 0 0 0 0 0 0 0 0 0 0 0 0 0 127 0" result="hardAlpha"/>
<feOffset/>
<feGaussianBlur stdDeviation="9.45"/>
<feColorMatrix type="matrix" values="0 0 0 0 0.054902 0 0 0 0 0.643137 0 0 0 0 0.960784 0 0 0 1 0"/>
<feBlend mode="normal" in2="effect2_dropShadow_1262_3466" result="effect3_dropShadow_1262_3466"/>
<feColorMatrix in="SourceAlpha" type="matrix" values="0 0 0 0 0 0 0 0 0 0 0 0 0 0 0 0 0 0 127 0" result="hardAlpha"/>
<feOffset/>
<feGaussianBlur stdDeviation="18.9"/>
<feColorMatrix type="matrix" values="0 0 0 0 0.054902 0 0 0 0 0.643137 0 0 0 0 0.960784 0 0 0 1 0"/>
<feBlend mode="normal" in2="effect3_dropShadow_1262_3466" result="effect4_dropShadow_1262_3466"/>
<feColorMatrix in="SourceAlpha" type="matrix" values="0 0 0 0 0 0 0 0 0 0 0 0 0 0 0 0 0 0 127 0" result="hardAlpha"/>
<feOffset/>
<feGaussianBlur stdDeviation="32.4"/>
<feColorMatrix type="matrix" values="0 0 0 0 0.054902 0 0 0 0 0.643137 0 0 0 0 0.960784 0 0 0 1 0"/>
<feBlend mode="normal" in2="effect4_dropShadow_1262_3466" result="effect5_dropShadow_1262_3466"/>
<feColorMatrix in="SourceAlpha" type="matrix" values="0 0 0 0 0 0 0 0 0 0 0 0 0 0 0 0 0 0 127 0" result="hardAlpha"/>
<feOffset/>
<feGaussianBlur stdDeviation="56.7"/>
<feColorMatrix type="matrix" values="0 0 0 0 0.054902 0 0 0 0 0.643137 0 0 0 0 0.960784 0 0 0 1 0"/>
<feBlend mode="normal" in2="effect5_dropShadow_1262_3466" result="effect6_dropShadow_1262_3466"/>
<feBlend mode="normal" in="SourceGraphic" in2="effect6_dropShadow_1262_3466" result="shape"/>
</filter>
</defs>
</svg>