<svg width="100" height="50" viewBox="0 0 100 50" fill="none" xmlns="http://www.w3.org/2000/svg">
<g clip-path="url(#clip0_228_538)">
<path d="M0 45.419H3.29443V32.903L8.39453 43.818C8.99609 45.1338 9.82031 45.6065 11.4355 45.6065C13.0508 45.6065 13.8428 45.1389 14.4453 43.818L19.5459 32.903V45.4237H22.8408V32.9237C22.8408 31.7042 22.333 31.1145 21.2881 30.81C18.7856 30.0581 17.1064 30.7085 16.3467 32.3344L11.3418 43.1065L6.49414 32.3297C5.76562 30.7038 4.05518 30.0534 1.55273 30.8053C0.506836 31.1103 0 31.7 0 32.919V45.419ZM25.5791 35.2282H28.8726V42.1267C28.8418 42.5017 28.9976 43.3814 30.8022 43.4082C31.7231 43.4223 37.9087 43.4082 37.9663 43.4082V35.1939H41.2671C41.2817 35.1939 41.2637 46.3941 41.2642 46.442C41.2822 49.2042 37.7026 49.8043 36.0532 49.8509H25.6509V47.7174L36.0718 47.7169C38.1919 47.5008 37.9419 46.4871 37.9419 46.1455V45.3137H30.9399C27.6821 45.2855 25.6079 43.9166 25.582 42.3424C25.5796 42.2014 25.6523 35.2959 25.5801 35.2277L25.5791 35.2282Z" fill="#61666A"/>
<path d="M43.8066 45.4189H53.2783C54.3867 45.4189 55.4644 45.1957 56.3203 44.8089C57.7461 44.1792 58.4429 43.3254 58.4429 42.2074V39.8907C58.4429 38.9758 57.6509 38.1224 56.0991 37.5533C55.2754 37.2478 54.2617 37.0857 53.2798 37.0857H49.2881C47.958 37.0857 47.3242 36.6994 47.166 35.8461C47.1343 35.7446 47.1343 35.6581 47.1343 35.5613V34.1186C47.1343 34.0373 47.1343 33.9556 47.166 33.8541C47.3242 33.2037 47.6728 33.0204 48.8447 32.9142C48.9399 32.9142 49.0664 32.8935 49.1621 32.8935H58.5703V30.7803H49.3203C47.9897 30.7803 47.293 30.8616 46.6592 31.0444C44.6934 31.6341 43.8379 32.574 43.8379 34.1999V36.0495C43.8379 37.4725 45.5176 38.6919 48.3359 38.9762C48.6533 38.9964 48.9697 39.0166 49.2861 39.0166H52.7075C52.8345 39.0166 52.9614 39.0166 53.0561 39.0373C54.1011 39.1186 54.5454 39.3014 54.8618 39.667C55.0571 39.855 55.1157 40.0336 55.1157 40.2309V42.0806C55.1157 42.3042 54.9575 42.589 54.6406 42.8324C54.3555 43.0768 53.8804 43.2389 53.2466 43.2798C53.1196 43.2798 53.0249 43.3 52.8984 43.3H43.8066V45.4137V45.4189ZM78.9941 41.7403C78.9941 43.9151 80.6729 45.1346 84.0625 45.3785C84.3787 45.402 84.6956 45.4155 85.0127 45.4189H93.5977V43.3052H84.9492C83.0171 43.3052 82.2881 42.8376 82.2881 41.7197V30.7845H78.9937V41.7394L78.9941 41.7403ZM60.5444 41.8503V34.315C60.5444 32.4006 61.9409 31.2394 64.7026 30.8728C64.9972 30.8324 65.2943 30.812 65.5918 30.8118H71.8452C72.1533 30.8119 72.4609 30.8324 72.7661 30.8728C75.5278 31.2394 76.9243 32.4001 76.9243 34.315V41.8503C76.9243 43.4034 76.3311 44.2347 74.9639 44.7765L78.209 47.5961H74.3838L71.7583 45.315L69.1152 45.4762H65.5918C64.9888 45.4762 64.354 45.3945 63.6553 45.2112C61.5557 44.6614 60.5444 43.6022 60.5444 41.8503ZM64.1006 41.6623C64.1006 41.7643 64.1323 41.8658 64.1641 41.9885C64.3594 42.8644 65.2114 43.3531 66.5078 43.3531H69.501L66.7519 40.9645H70.5772L72.9697 43.0477C73.4116 42.8212 73.7021 42.4744 73.7998 42.0293C73.8315 41.9278 73.8315 41.8259 73.8315 41.7239V34.4988C73.8315 34.4175 73.8315 34.3108 73.7998 34.2135C73.6045 33.3992 72.7519 32.9307 71.4824 32.9307H66.5137C65.0488 32.9307 64.1016 33.5416 64.1016 34.4988V41.668L64.1006 41.6623Z" fill="#61666A"/>
<path d="M96.4961 27.2779C94.4712 27.2253 92.9239 27.4062 91.6016 27.9429C91.2256 28.0956 90.6265 28.0994 90.565 28.5528C90.7715 28.761 90.8042 29.0721 90.9678 29.3282C91.2837 29.8202 91.8174 30.4795 92.2925 30.8244C92.8121 31.2018 93.3472 31.6059 93.9053 31.9335C94.8965 32.5152 96.003 32.8475 96.9571 33.4297C97.5196 33.7728 98.0782 34.2051 98.627 34.5932C98.898 34.785 99.0811 35.0829 99.4327 35.2027V35.1473C99.2471 34.9203 99.1998 34.6083 99.0298 34.3719L98.2813 33.6515C97.5489 32.7117 96.6202 31.8954 95.6324 31.2126C94.8448 30.6684 93.0816 29.9335 92.753 29.051L92.6954 28.9955C93.2539 28.9344 93.9078 28.7403 94.4239 28.6078C95.2896 28.3846 96.0635 28.4419 96.9581 28.2201L98.1675 27.8874V27.6656C97.7154 27.2192 97.3931 26.6285 96.9004 26.2248C95.6114 25.1675 94.2037 24.1125 92.7549 23.2314C91.9512 22.7427 90.9581 22.426 90.106 22.0119C89.8194 21.8729 89.316 21.8005 89.127 21.5683C88.6797 21.0195 88.4361 20.323 88.0909 19.6886C87.3682 18.3494 86.6582 16.886 86.0176 15.4767C85.5806 14.5157 85.295 13.5679 84.751 12.7056C82.1363 8.56834 79.3213 6.07116 74.962 3.61721C74.0342 3.09559 72.9175 2.88883 71.7369 2.61956L69.8365 2.50866C69.4497 2.35358 69.0474 1.89776 68.6841 1.67689C67.2398 0.798132 63.5352 -1.11117 62.4654 1.39494C61.7901 2.97999 63.4747 4.52652 64.0777 5.33009C64.5005 5.894 65.0425 6.52511 65.3443 7.15903C65.543 7.57539 65.5777 7.99315 65.7476 8.43394C66.1661 9.51477 66.5303 10.7004 67.0718 11.7037C67.3453 12.2112 67.647 12.746 67.9932 13.1999C68.2056 13.4786 68.5694 13.6012 68.6265 14.0317C68.271 14.511 68.2505 15.2535 68.0503 15.8606C67.1504 18.5918 67.4898 21.9861 68.7989 24.0077C69.2007 24.628 70.1465 25.9588 71.4478 25.4485C72.5855 25.0021 72.3267 23.6205 72.6573 22.4006C72.7305 22.1233 72.6856 21.9213 72.8301 21.7356V21.7911L73.8667 23.7859C74.6333 24.9748 75.9957 26.2178 77.149 27.0566C77.7471 27.4913 78.2232 28.2432 78.9917 28.4974V28.4419H78.9341C78.7842 28.2164 78.5499 28.1238 78.358 27.9438C77.9073 27.5185 77.4058 26.9899 77.0333 26.503C75.9834 25.1318 75.0567 23.6318 74.212 22.0693C73.8086 21.3235 73.4576 20.5007 73.1182 19.7417C72.9874 19.449 72.9888 19.0068 72.7154 18.855C72.3428 19.4114 71.794 19.8606 71.5059 20.5176C71.045 21.5674 70.9854 22.8475 70.815 24.1755C70.7139 24.2103 70.7588 24.1863 70.6998 24.2309C69.898 24.0448 69.6158 23.2502 69.3179 22.5683C68.564 20.8437 68.4244 18.0683 69.0874 16.0843C69.2583 15.5712 70.0347 13.9537 69.7207 13.4795C69.5708 13.0063 69.0762 12.7276 68.7994 12.3705C68.4576 11.9241 68.1148 11.3348 67.878 10.8188C67.2608 9.47482 66.9727 7.96637 66.3233 6.60687C66.0127 5.95744 65.4883 5.30048 65.0567 4.72717C64.5791 4.08808 64.0445 3.61627 63.6749 2.84747C63.543 2.57257 63.3643 2.13319 63.5596 1.84982C63.5783 1.76841 63.6207 1.69383 63.682 1.63487C63.7432 1.57592 63.8207 1.53506 63.9053 1.51712C64.2393 1.26947 65.17 1.59935 65.5176 1.73892C66.4405 2.10828 67.212 2.45979 67.9942 2.95838C68.3702 3.19334 68.7496 3.66138 69.2032 3.79014H69.7207C70.5313 3.96965 71.4395 3.84653 72.1963 4.0674C73.5352 4.45885 74.7344 5.06834 75.8243 5.72999C79.1436 7.74691 81.857 10.6182 83.7134 14.0477C84.0123 14.5989 84.1412 15.1257 84.4043 15.7103C84.9351 16.8851 85.6036 18.1036 86.1319 19.2568C86.6592 20.4081 87.1719 21.5688 87.917 22.5265C88.3086 23.0293 89.8213 23.3 90.5083 23.5791C90.9903 23.7751 91.7793 23.9795 92.2359 24.2441C93.1075 24.7502 93.9522 25.3531 94.7701 25.9076C95.1788 26.1849 96.4351 26.7925 96.4976 27.293L96.4961 27.2779Z" fill="#61666A"/>
<path fill-rule="evenodd" clip-rule="evenodd" d="M70.7568 6.16329C70.3345 6.15577 70.0361 6.20747 69.7202 6.2742V6.32965H69.7778C69.979 6.72814 70.3345 6.98425 70.5835 7.3273L71.1597 8.49083L71.2173 8.43538C71.5737 8.19337 71.7373 7.80662 71.7349 7.21593C71.5918 7.07119 71.5708 6.8898 71.4468 6.71686C71.2822 6.4866 70.9585 6.35596 70.7559 6.16235L70.7568 6.16329Z" fill="#61666A"/>
<path fill-rule="evenodd" clip-rule="evenodd" d="M95.144 43.2452C95.144 44.6408 96.29 45.5816 97.5718 45.5816C98.8535 45.5816 99.9995 44.6408 99.9995 43.2452C99.9995 41.8495 98.8535 40.9087 97.5718 40.9087C96.29 40.9087 95.144 41.8495 95.144 43.2452ZM99.4556 43.2452C99.4556 44.3044 98.6143 45.0957 97.5708 45.0957C96.5161 45.0957 95.686 44.3044 95.686 43.2452C95.686 42.1859 96.5151 41.3946 97.5708 41.3946C98.6133 41.3946 99.4556 42.1859 99.4556 43.2452ZM98.2251 44.5788H98.7686L97.9727 43.4078C98.3999 43.364 98.7231 43.1643 98.7231 42.6784C98.7231 42.1361 98.3667 41.9125 97.6812 41.9125H96.5996V44.5793H97.0659V43.4265H97.4995L98.2246 44.5793L98.2251 44.5788ZM97.0659 43.0515V42.2856H97.603C97.8814 42.2856 98.2183 42.3354 98.2183 42.6474C98.2183 43.021 97.9141 43.0525 97.564 43.0525H97.0659V43.0515Z" fill="#61666A"/>
</g>
<defs>
<clipPath id="clip0_228_538">
<rect width="100" height="50" fill="white"/>
</clipPath>
</defs>
</svg>
