<svg width="34" height="34" viewBox="0 0 34 34" fill="none" xmlns="http://www.w3.org/2000/svg">
<path fill-rule="evenodd" clip-rule="evenodd" d="M14.3885 0.90043C14.2026 0.624881 13.8919 0.459717 13.5595 0.459717H1.12439C0.572105 0.459717 0.12439 0.907432 0.12439 1.45972V10.6234V31.5402C0.12439 32.6447 1.02116 33.5402 2.12573 33.5402H23.0349H31.8757C32.9803 33.5402 33.8757 32.6447 33.8757 31.5402V19.6749V10.6234V5.83448C33.8757 5.28219 33.428 4.83448 32.8757 4.83448H17.5743C17.2419 4.83448 16.9313 4.66931 16.7454 4.39376L14.3885 0.90043ZM32.3757 8.68639V6.33448H17.5743C16.7434 6.33448 15.9667 5.92157 15.5019 5.23269L13.2937 1.95972H1.62439V8.68639C1.7842 8.64525 1.95174 8.62338 2.12439 8.62338H31.8757C32.0484 8.62338 32.2159 8.64525 32.3757 8.68639ZM2.12439 10.1234H31.8757C32.1519 10.1234 32.3757 10.3472 32.3757 10.6234V19.6749V31.5402C32.3757 31.8163 32.1519 32.0402 31.8757 32.0402H23.0349H2.12573C1.84828 32.0402 1.62439 31.815 1.62439 31.5402V10.6234C1.62439 10.3472 1.84825 10.1234 2.12439 10.1234ZM2.27806 5.32841C2.27806 4.9142 2.61384 4.57841 3.02806 4.57841H9.09864C9.51285 4.57841 9.84864 4.9142 9.84864 5.32841C9.84864 5.74263 9.51285 6.07841 9.09864 6.07841H3.02806C2.61384 6.07841 2.27806 5.74263 2.27806 5.32841ZM12.955 18.1373C13.2777 17.8775 13.3286 17.4054 13.0688 17.0828C12.809 16.7602 12.3368 16.7093 12.0142 16.9691L7.6319 20.4982C7.45511 20.6405 7.35231 20.8553 7.35231 21.0823C7.35231 21.3093 7.45511 21.5241 7.6319 21.6664L12.0142 25.1956C12.3368 25.4553 12.809 25.4044 13.0688 25.0818C13.3286 24.7592 13.2777 24.2871 12.955 24.0273L9.29807 21.0823L12.955 18.1373ZM20.9324 17.0828C20.6726 17.4054 20.7235 17.8775 21.0462 18.1373L24.7031 21.0823L21.0462 24.0273C20.7235 24.2871 20.6726 24.7592 20.9324 25.0818C21.1922 25.4044 21.6644 25.4553 21.987 25.1956L26.3693 21.6664C26.5461 21.5241 26.6489 21.3093 26.6489 21.0823C26.6489 20.8553 26.5461 20.6405 26.3693 20.4982L21.987 16.9691C21.6644 16.7093 21.1922 16.7602 20.9324 17.0828ZM19.403 17.2398C19.5614 16.8571 19.3796 16.4184 18.9969 16.26C18.6142 16.1016 18.1755 16.2834 18.0171 16.6661L14.5981 24.9244C14.4396 25.3071 14.6214 25.7458 15.0042 25.9042C15.3869 26.0627 15.8256 25.8809 15.984 25.4982L19.403 17.2398Z" fill="#0DA4F5"/>
</svg>
