<svg width="34" height="34" viewBox="0 0 34 34" fill="none" xmlns="http://www.w3.org/2000/svg">
<path d="M0.756553 8.67668C0.67482 7.1539 1.35362 5.84774 2.2467 4.90749L4.8627 2.15333C6.90634 0.00176621 10.2867 0.404874 11.976 2.79418L14.0777 5.76665C15.4289 7.67776 15.3148 10.3347 13.7021 12.0325L13.294 12.4621L13.2905 12.4718C13.2689 12.5324 13.2144 12.7254 13.268 13.0916C13.3793 13.8509 13.9654 15.3937 16.3448 17.8988C18.7317 20.4117 20.1795 21.004 20.8504 21.113C21.1399 21.16 21.2912 21.1191 21.3395 21.1021L22.0206 20.3851C23.4768 18.8519 25.7474 18.5499 27.5782 19.6036L30.7624 21.4364C33.4839 23.0029 34.1174 26.8349 31.9424 29.1247L29.5748 31.6173C28.8359 32.3953 27.8283 33.0593 26.5832 33.1822C23.5434 33.4823 16.5015 33.0915 9.11922 25.3193C2.23061 18.0669 0.92198 11.7587 0.756553 8.67668ZM0.756553 8.67668L1.86672 8.61709M9.93471 4.23745C9.0808 3.02971 7.54674 2.95764 6.67535 3.87505L4.05935 6.62921C3.50703 7.2107 3.21724 7.87719 3.25296 8.54269C3.38802 11.059 4.47166 16.7962 10.9319 23.5976C17.7055 30.7289 23.9459 30.9304 26.3376 30.6943C26.8105 30.6477 27.2971 30.3852 27.7622 29.8956L30.1297 27.403C31.1511 26.3277 30.8833 24.3906 29.5153 23.6031L26.3311 21.7703C25.4766 21.2785 24.4756 21.4305 23.8332 22.1068L23.0741 22.906L22.1955 22.0714C23.0741 22.906 23.073 22.9072 23.0718 22.9084L23.0694 22.9109L23.0645 22.916L23.0539 22.9268L23.03 22.9503C23.0128 22.9669 22.993 22.9852 22.9706 23.0049C22.9259 23.0442 22.8704 23.089 22.8038 23.1362C22.6703 23.2309 22.4924 23.335 22.2676 23.4237C21.8076 23.6052 21.2001 23.7025 20.4496 23.5806C18.9871 23.3431 17.0703 22.2926 14.5322 19.6205C11.9866 16.9405 11.0123 14.9409 10.7945 13.4541C10.6836 12.6973 10.7723 12.0913 10.9352 11.6337C11.0152 11.4086 11.1098 11.2292 11.197 11.0929C11.2405 11.025 11.2819 10.9681 11.3185 10.9218C11.3369 10.8986 11.354 10.8781 11.3696 10.8602L11.3918 10.8352L11.402 10.8242L11.4068 10.819L11.4091 10.8165C11.4103 10.8153 11.4114 10.8141 12.2976 11.6557L11.4115 10.8141L11.8895 10.3108C12.632 9.52901 12.7399 8.20504 12.0364 7.20993L9.93471 4.23745ZM22.4166 5.33312C22.4166 4.64277 22.9763 4.08312 23.6666 4.08312H28.6666C29.357 4.08312 29.9166 4.64277 29.9166 5.33312V10.3331C29.9166 11.0235 29.357 11.5831 28.6666 11.5831C27.9763 11.5831 27.4166 11.0235 27.4166 10.3331V8.35089L22.8838 12.8837C22.3957 13.3718 21.6042 13.3718 21.1161 12.8837C20.6279 12.3955 20.6279 11.6041 21.1161 11.1159L25.6488 6.58312H23.6666C22.9763 6.58312 22.4166 6.02348 22.4166 5.33312Z" stroke="#0DA4F5" stroke-linecap="round"/>
</svg>
