<svg width="50" height="50" viewBox="0 0 50 50" fill="none" xmlns="http://www.w3.org/2000/svg">
<path d="M4.89862 43.6115C4.89862 44.1906 4.72889 44.6444 4.38931 44.9726C4.04964 45.3008 3.58415 45.4647 2.99283 45.4647H0.635034L0.64104 48.2044L0 48.2146V41.7739L3.17054 41.763C3.71618 41.763 4.13963 41.927 4.4412 42.2551C4.74631 42.5834 4.89892 43.0372 4.89901 43.6162M4.25217 43.6398C4.25217 42.7364 3.82487 42.2844 2.97019 42.2844L0.635231 42.2744V44.9559H2.85007C3.7849 44.9559 4.25217 44.5157 4.25217 43.6354M9.53959 46.0962C9.53959 46.7836 9.36217 47.3204 9.00724 47.7064C8.61037 48.139 8.03244 48.3552 7.27316 48.3552C6.91074 48.3552 6.59401 48.3054 6.32316 48.2046C6.05616 48.1003 5.82144 47.9381 5.61921 47.7181C5.25296 47.305 5.06974 46.7643 5.06974 46.0961C5.06974 45.4245 5.24715 44.8916 5.60198 44.4978C5.99501 44.0576 6.55197 43.8375 7.27316 43.8375C8.03618 43.8375 8.61234 44.0517 9.00153 44.4803C9.3603 44.8667 9.53959 45.4052 9.53959 46.0962ZM8.9844 46.0962C8.9844 44.8956 8.41395 44.2952 7.27325 44.2952C6.75814 44.2952 6.35378 44.4554 6.05999 44.7757C5.91881 44.9304 5.81012 45.1194 5.73381 45.3433C5.66135 45.5634 5.62512 45.8145 5.62512 46.0962C5.62512 46.6484 5.7663 47.0886 6.04848 47.4169C6.33468 47.7414 6.74298 47.9036 7.27335 47.9036C7.86083 47.9036 8.29778 47.7355 8.58389 47.3997C8.72133 47.2489 8.82244 47.0655 8.88722 46.8494C8.95201 46.6329 8.9844 46.3821 8.9844 46.0962ZM14.0169 47.0404C14.0169 47.9093 13.374 48.3435 12.0882 48.3435C11.6953 48.3435 11.3633 48.3128 11.0924 48.251C10.8253 48.1891 10.6079 48.0887 10.4401 47.95C10.3103 47.8456 10.2073 47.7086 10.131 47.5386C10.0548 47.3649 10.0052 47.1504 9.98224 46.8956L10.5774 46.8854C10.5774 47.2253 10.6824 47.4765 10.8921 47.6387C11.1173 47.8317 11.516 47.9281 12.0882 47.9281C12.9887 47.9281 13.4389 47.656 13.4389 47.1114C13.4389 46.7949 13.2883 46.5767 12.9868 46.457C12.9256 46.4297 12.5614 46.3686 11.8936 46.2717C11.2297 46.1711 10.8158 46.0827 10.6517 46.0052C10.2969 45.8354 10.1195 45.5285 10.1195 45.0845C10.1195 44.6518 10.2778 44.3296 10.5945 44.1173C10.751 44.0288 10.9454 43.961 11.1782 43.9144C11.4148 43.8648 11.6875 43.8395 11.9966 43.8395C13.2328 43.8395 13.8508 44.3085 13.8508 45.2468H13.2842C13.2842 44.5866 12.8492 44.2565 11.9794 44.2565C11.5367 44.2565 11.2068 44.3248 10.9893 44.4592C10.7718 44.5906 10.6632 44.7952 10.6632 45.0731C10.6632 45.3318 10.81 45.517 11.1038 45.629C11.2755 45.6911 11.6704 45.7602 12.2885 45.8375C12.8418 45.8995 13.2214 45.9844 13.4274 46.0925C13.8204 46.2777 14.0169 46.5926 14.0169 47.0365M16.6127 48.2221C16.5211 48.2414 16.439 48.2546 16.3665 48.2628C16.2979 48.273 16.2483 48.2738 16.2179 48.2738C15.8287 48.2738 15.5481 48.2056 15.3766 48.0713C15.2049 47.9322 15.119 47.6909 15.119 47.3471V44.4221H14.4094V43.9879H15.1133L15.1194 42.5919H15.6631V43.9937L16.6131 43.9834V44.4236L15.6631 44.4134V47.2572C15.6631 47.4695 15.7089 47.6163 15.8004 47.6973C15.8959 47.7787 16.0638 47.8189 16.3041 47.8189C16.3385 47.8189 16.3767 47.8189 16.4186 47.8087C16.4607 47.7985 16.5236 47.7873 16.6075 47.7682L16.6134 48.2083M21.0626 48.0773C21.0626 49.3588 20.3511 50 18.9278 50C18.1839 50 17.6555 49.8765 17.3426 49.6293C17.0718 49.4169 16.9058 49.0752 16.8446 48.6041L17.4055 48.5938C17.4704 48.9374 17.5887 49.1769 17.7604 49.312C17.9893 49.4933 18.3728 49.5842 18.9107 49.5842C19.483 49.5842 19.8932 49.4527 20.1412 49.1903C20.3931 48.9277 20.519 48.5552 20.519 48.0725L20.5129 47.3194C20.1695 47.8641 19.5877 48.1361 18.7673 48.1361C18.0845 48.1361 17.5559 47.947 17.182 47.5684C17.0103 47.3833 16.8788 47.1591 16.7872 46.8966C16.6994 46.6301 16.6556 46.327 16.6556 45.9872C16.6556 45.3077 16.833 44.7884 17.1879 44.4293C17.5619 44.0355 18.1036 43.8382 18.8131 43.8382C19.2977 43.8382 19.6926 43.9406 19.9979 44.1453C20.1008 44.2223 20.2725 44.4097 20.5129 44.7071L20.519 43.9774H21.0626V48.0725M20.519 45.9644C20.519 45.4587 20.3796 45.0551 20.1012 44.7541C19.8265 44.449 19.4221 44.2963 18.8879 44.2963C18.3577 44.2963 17.9455 44.4471 17.6518 44.7482C17.3618 45.0454 17.2169 45.4587 17.2169 45.9875C17.2169 47.1267 17.7871 47.6961 18.928 47.6961C19.1762 47.6961 19.3955 47.6573 19.5862 47.5801C19.777 47.5032 19.9468 47.3891 20.0956 47.2381C20.3777 46.9412 20.519 46.5166 20.519 45.9644ZM24.2285 44.4166C24.0643 44.3859 23.9118 44.37 23.7707 44.37C22.8741 44.37 22.4258 44.9625 22.4258 46.1481L22.4318 48.2042H21.8881L21.882 43.9935L22.4257 43.9833V44.742H22.4543C22.5459 44.4448 22.6909 44.2208 22.8893 44.0702C23.1068 43.9234 23.4311 43.8502 23.8622 43.8502C23.9499 43.8502 24.0224 43.8502 24.0796 43.8502C24.1408 43.8502 24.1903 43.8502 24.2285 43.8604V44.4163M28.709 46.2122H24.8229C24.8229 46.695 24.9546 47.0886 25.2179 47.3939C25.5231 47.749 25.96 47.9265 26.5286 47.9265C27.3338 47.9265 27.8372 47.562 28.0395 46.832H28.629C28.5412 47.2492 28.3333 47.6005 28.0051 47.8861C27.8182 48.0369 27.5986 48.1526 27.3467 48.2336C27.0987 48.319 26.8278 48.361 26.5342 48.361C25.7977 48.361 25.2274 48.1372 24.8228 47.6894C24.4491 47.2877 24.262 46.7449 24.262 46.0617C24.262 45.3821 24.4567 44.8453 24.8459 44.4516C25.2349 44.0539 25.7826 43.8552 26.4882 43.8552C26.8662 43.8552 27.196 43.9111 27.4788 44.0232C27.7607 44.1313 27.9977 44.2993 28.1881 44.5272C28.5354 44.936 28.709 45.4979 28.709 46.2122ZM28.1365 45.83C28.1365 45.4245 27.9819 45.0615 27.673 44.7409C27.3677 44.4204 26.973 44.2602 26.4882 44.2602C26.2403 44.2602 26.0171 44.2991 25.8188 44.3761C25.6203 44.4493 25.443 44.5635 25.2865 44.7179C25.0461 44.9806 24.8917 45.3512 24.8229 45.83H28.1365ZM35.8265 46.4988C35.8265 48.0108 34.8206 48.767 32.8089 48.767C31.6036 48.767 30.7233 48.5074 30.169 47.9878C29.7154 47.5613 29.4885 46.9117 29.4885 46.0399H30.2999C30.2999 47.4452 31.1363 48.1478 32.809 48.1478C33.6109 48.1478 34.1908 48.0017 34.548 47.7096C34.8504 47.459 35.0016 47.0626 35.0016 46.5201C35.0016 45.9822 34.7955 45.6044 34.383 45.386C34.1493 45.2701 33.5788 45.1238 32.6713 44.9479C31.5302 44.7392 30.79 44.5283 30.4509 44.3148C29.9604 44.0041 29.7151 43.4799 29.7151 42.7425C29.7151 42.0469 29.9237 41.5321 30.3406 41.1981C30.7898 40.8271 31.5598 40.6414 32.6504 40.6414C34.6213 40.6414 35.6065 41.4323 35.6065 43.014H34.7885C34.7885 41.8313 34.0574 41.2398 32.5957 41.2398C31.8624 41.2398 31.3261 41.3582 30.987 41.5947C30.6659 41.8497 30.5055 42.2233 30.5055 42.7148C30.5055 43.2297 30.712 43.5934 31.1241 43.807C31.3441 43.9277 31.9905 44.0948 33.0627 44.3078C34.0708 44.4933 34.7515 44.7066 35.1045 44.9479C35.586 45.2491 35.8265 45.766 35.8265 46.4988ZM43.86 48.7461L43.3648 49.2885L42.1689 48.2798C41.9167 48.4421 41.6096 48.565 41.2477 48.6484C40.8857 48.7317 40.4618 48.7736 39.9759 48.7736C38.7341 48.7736 37.7533 48.4002 37.0335 47.6536C36.3186 46.9023 35.961 45.9165 35.961 44.6968C35.961 43.4492 36.3162 42.4589 37.0266 41.7262C37.7369 40.9933 38.7152 40.627 39.962 40.627C40.6036 40.627 41.174 40.7245 41.6737 40.9192C42.1731 41.114 42.5993 41.411 42.9522 41.8098C43.6123 42.5334 43.9423 43.4957 43.9423 44.6972C43.9423 45.3695 43.8413 45.9632 43.6398 46.4781C43.438 46.9883 43.1265 47.4221 42.705 47.7791L43.86 48.7461ZM43.1656 44.6971C43.1656 44.1683 43.0944 43.6975 42.9524 43.2848C42.8104 42.8675 42.5902 42.5033 42.2924 42.1925C41.7288 41.5569 40.9542 41.2394 39.9688 41.2394C38.9972 41.2394 38.2158 41.543 37.6245 42.1507C37.0378 42.7584 36.7445 43.6069 36.7445 44.6971C36.7445 45.7454 37.0399 46.5848 37.6311 47.2155C38.227 47.8415 39.006 48.1547 39.9685 48.1547C40.4405 48.1547 40.8669 48.0805 41.2472 47.9322C41.6274 47.7837 41.9689 47.5635 42.2712 47.2711C42.8671 46.6404 43.165 45.7824 43.165 44.6971M49.9931 48.5651L44.459 48.5754V40.839L45.2222 40.825V47.9211H50L49.993 48.5679M19.8608 11.8322C19.9586 11.8953 20.0694 11.9433 20.1886 11.96C20.609 12.0194 20.9689 11.6736 20.9917 11.5081C21.0145 11.3423 20.6919 11.1598 20.2706 11.1004C19.8499 11.0411 19.4898 11.1274 19.4676 11.2929H19.4675C19.4509 11.4118 19.6129 11.6723 19.8608 11.8322ZM19.6016 11.5616C19.5271 11.4619 19.4833 11.3607 19.4883 11.3013L19.489 11.2959C19.5043 11.1827 19.719 11.1036 20.0114 11.1036C20.0942 11.1036 20.1805 11.1099 20.2677 11.1222C20.4688 11.1505 20.6534 11.2078 20.7873 11.2835C20.9133 11.3548 20.9799 11.4356 20.9704 11.5051C20.9524 11.6359 20.6673 11.945 20.2852 11.945C20.254 11.945 20.2225 11.9428 20.1916 11.9386C20.083 11.9233 19.982 11.8805 19.8917 11.8251C19.8731 11.8136 19.8546 11.8022 19.837 11.7897C19.74 11.721 19.659 11.6388 19.6016 11.5616ZM40.0326 21.2412C39.964 21.0311 39.6555 20.3628 38.5752 20.5886C36.8643 20.9459 35.8575 20.9104 35.2695 20.7732C39.0625 14.4014 41.0516 6.23629 39.2307 3.88125C37.2964 1.37965 34.4559 0.0378249 31.0165 0.00075959C28.4777 -0.0259433 26.4773 0.659565 26.2405 0.769067C25.4167 0.559429 24.518 0.430697 23.5387 0.414256C21.9092 0.387952 20.4846 0.748641 19.2812 1.48616C18.5449 1.24394 17.39 0.912047 16.0546 0.700416C12.9693 0.211195 10.5279 0.596295 8.79822 1.84416C6.76926 3.30834 5.83227 5.90549 6.01303 9.5639C6.07348 10.7874 6.80796 14.6141 7.9779 18.3326C9.49459 23.1532 11.1108 25.8834 12.7818 26.4475C12.9744 26.5123 13.1965 26.5579 13.4412 26.5579C14.0033 26.5578 14.6841 26.3165 15.3953 25.5187C15.4876 26.0215 16.179 26.2721 16.9459 26.5019C16.9614 26.5066 16.9772 26.5105 16.9932 26.5134C17.1887 26.5493 17.3802 26.5879 17.5684 26.6259C18.2274 26.7582 18.8499 26.8833 19.4852 26.8833H19.4854C20.2959 26.8833 21.0067 26.6738 21.6859 26.2253C21.6902 29.477 21.9414 32.2404 22.3515 33.2783C22.529 33.7274 23.4622 35.6835 26.222 35.6833C26.6746 35.6833 27.1758 35.6308 27.7312 35.5104C30.5335 34.9024 31.7942 33.674 32.2279 31.1288C32.4811 29.6436 32.8136 26.8627 32.9585 25.4041C33.3338 25.4985 33.7895 25.5421 34.2769 25.5421C35.4605 25.5419 36.8312 25.286 37.6911 24.882C39.1782 24.1827 40.3821 22.3114 40.0326 21.2412ZM36.9789 24.0124C36.0949 24.4275 34.899 24.6221 33.8774 24.6221C33.244 24.6221 32.6778 24.5472 32.2941 24.4037C32.1195 26.0581 31.7156 29.3667 31.4832 30.7302C31.0645 33.188 30.032 34.2511 27.5374 34.7925C27.1209 34.8828 26.7424 34.9232 26.3983 34.9232C25.5674 34.9232 24.9381 34.6867 24.4577 34.3476C23.9349 34.0777 23.4732 33.6381 23.196 32.9365C23.1389 32.792 23.0828 32.5886 23.0292 32.334C23.021 32.3134 23.0128 32.2928 23.0053 32.2734C22.622 31.3038 22.4959 27.9324 22.5293 24.7008C21.6549 25.5933 20.527 26.0611 19.2235 26.0611C18.7211 26.0611 18.1922 25.9917 17.6515 25.8547C17.3937 25.7897 17.0531 25.6628 16.7664 25.4782C16.72 25.4537 16.7042 25.4358 16.6602 25.405C16.3926 25.2079 16.1946 24.9544 16.2009 24.6453C16.2145 23.9854 17.081 23.7287 17.7314 23.5929C19.3114 23.2637 19.4273 23.1149 19.9147 22.4887C20.0179 22.3559 20.1404 22.1988 20.292 22.0184C20.2849 21.9518 20.2797 21.8848 20.2783 21.8171C19.541 21.8155 18.8185 21.6185 18.1688 21.2493C17.8085 21.6358 16.625 22.9209 15.3531 24.4694C14.8991 25.0218 14.4588 25.3206 14.0572 25.4635C13.5646 25.7412 13.2155 25.6237 13.0697 25.5745C12.983 25.5452 12.8968 25.5059 12.8107 25.46C9.30526 24.1924 6.86536 11.996 6.754 9.74075C6.58427 6.30723 7.45451 3.88066 9.34041 2.52847C10.9017 1.40894 13.1894 1.05562 15.9562 1.50669C17.649 1.78258 19.0203 2.27081 19.4896 2.45035C20.6744 1.61639 22.1111 1.20628 23.7801 1.23537C24.6765 1.25022 25.5002 1.3663 26.256 1.55561V1.51665C26.3313 1.5303 26.4063 1.54385 26.48 1.5587C26.9523 1.38672 28.5989 0.898895 30.6538 0.898895C31.2256 0.898895 31.8559 0.93865 32.5153 1.04536C34.5776 1.33302 36.8042 2.23683 38.5147 4.44849C38.7444 4.74561 38.8919 5.22218 38.9585 5.84113C39.2001 7.1702 39.0221 9.11812 38.4247 11.4598C37.5854 14.7486 36.031 18.2734 34.1403 21.1917C34.1403 21.1917 34.1123 21.2406 34.0833 21.2863C34.4118 21.5668 35.426 21.8873 37.8264 21.3858C38.5863 21.2269 39.039 21.3537 39.1726 21.7621C39.4259 22.5376 37.9994 23.5326 36.9789 24.0124ZM32.9679 21.2205C32.4238 21.3839 31.5034 21.7718 31.5928 23.5582C31.5874 23.627 31.5797 23.7153 31.5702 23.8171C31.57 23.8199 31.5695 23.8233 31.5691 23.826C31.5647 23.8728 31.5599 23.9226 31.5547 23.9755C31.5544 23.9772 31.5544 23.9789 31.5542 23.9807C31.4089 25.4417 30.9634 29.1388 30.715 30.5959C30.3535 32.7184 29.5416 33.5506 27.3739 34.0211C25.0754 34.5195 24.2641 33.3344 23.7288 31.9803C23.3901 31.1232 23.2227 27.2945 23.3394 23.0742C23.3407 23.0248 23.332 22.9778 23.3169 22.9338C23.3044 22.8402 23.2871 22.7457 23.2601 22.6501C23.0985 22.079 22.6916 21.5829 22.2231 21.3863C22.073 21.3233 21.8458 21.2282 21.5733 21.2282C21.4112 21.2282 21.255 21.2622 21.1031 21.3271C21.1868 20.878 21.3759 20.363 21.5844 19.7976L21.6591 19.5945C21.7444 19.3624 21.8505 19.1239 21.9628 18.8714C22.5589 17.5313 23.3751 15.6961 22.4874 11.542C22.2684 10.5177 21.6996 9.85115 20.8444 9.58263C20.8163 9.57386 20.7874 9.56619 20.7587 9.55822C20.7143 9.54586 20.6694 9.5346 20.6236 9.52434C20.5943 9.51776 20.565 9.51129 20.5351 9.50551C20.4759 9.49435 20.4156 9.48478 20.3543 9.47691C20.3379 9.47482 20.3223 9.47173 20.3059 9.46994C20.2287 9.46117 20.1495 9.45569 20.0687 9.4522C20.0425 9.45101 20.0156 9.45081 19.989 9.45011C19.9278 9.44881 19.8657 9.44881 19.8025 9.45041C19.776 9.45111 19.7496 9.4515 19.7228 9.4527C19.6348 9.45669 19.5457 9.46237 19.4542 9.47203C18.4542 9.57685 17.5374 9.98626 17.0799 10.2209C16.9049 10.3107 16.7562 10.3948 16.6265 10.4741C16.6295 10.429 16.6329 10.3824 16.6365 10.3347C16.6399 10.29 16.6438 10.2436 16.6478 10.1967C16.6479 10.1952 16.648 10.1936 16.6482 10.1922C16.6566 10.0941 16.6665 9.99074 16.6779 9.88333C16.678 9.88254 16.6781 9.88174 16.6782 9.88104C16.8537 8.22646 17.4044 5.54421 19.1229 3.78769C20.2986 2.58596 21.8617 1.99501 23.7673 2.0243C29.8423 2.12504 32.5449 7.14798 33.2311 9.05245C33.2317 9.05395 33.2322 9.05515 33.2327 9.05664C33.2515 9.10865 33.2687 9.15837 33.2845 9.2057C33.2849 9.20749 33.2854 9.20909 33.2859 9.21098C33.3019 9.25861 33.3164 9.30414 33.3292 9.34639C33.2151 9.33284 33.1035 9.32168 32.9938 9.31231C32.9552 9.30892 32.9179 9.30693 32.8799 9.30414C32.8104 9.29896 32.7409 9.29388 32.673 9.29049C32.627 9.2881 32.5821 9.287 32.5369 9.28551C32.4796 9.28341 32.4226 9.28152 32.3666 9.28092C32.3176 9.28023 32.2698 9.28063 32.2218 9.28092C32.1724 9.28122 32.1231 9.28182 32.0747 9.28322C32.0241 9.28461 31.9744 9.2868 31.9252 9.28939C31.8822 9.29159 31.8402 9.29418 31.7983 9.29726C31.7463 9.30115 31.6948 9.30553 31.6444 9.31062C31.6088 9.3142 31.5739 9.31839 31.5389 9.32267C31.4849 9.32925 31.4313 9.33612 31.379 9.34419C31.3516 9.34848 31.3253 9.35346 31.2985 9.35804C31.241 9.36811 31.1836 9.37837 31.1283 9.39033C31.114 9.39332 31.1005 9.3969 31.0866 9.40019C30.6456 9.50043 30.2732 9.66264 29.9721 9.88802C29.9212 9.92608 29.8727 9.96593 29.8256 10.0075C29.8245 10.0085 29.8236 10.0094 29.8228 10.0103C29.7758 10.0518 29.7314 10.0951 29.6887 10.1402C29.6132 10.2198 29.5425 10.3033 29.4798 10.394C28.1179 12.3643 30.2638 16.2587 31.2952 18.1303C31.488 18.4802 31.6544 18.7823 31.7087 18.9157C32.0422 19.7334 32.4757 20.2818 32.7927 20.6824C32.9384 20.8669 33.0698 21.0332 33.1457 21.1695C33.1239 21.1757 33.1027 21.1818 33.0835 21.1874C33.0478 21.1976 33.0088 21.2087 32.9682 21.2208C32.9679 21.2205 32.9679 21.2205 32.9679 21.2205ZM37.984 22.1585C38.1348 22.127 38.2465 22.1132 38.3279 22.1085C38.1057 22.394 37.5175 22.8896 36.6505 23.2968C35.5619 23.8081 33.4326 24.0061 32.5822 23.675C32.4054 23.6061 32.3726 23.5453 32.3723 23.5453C32.2983 22.2297 32.8271 22.0794 33.2938 21.9468C33.3622 21.9274 33.4569 21.9004 33.5542 21.8585C33.6069 21.906 33.6675 21.9536 33.7368 21.9999C34.5286 22.5286 35.9575 22.582 37.984 22.1585ZM20.8539 19.5216L20.9282 19.3197C21.0227 19.0625 21.1338 18.8123 21.2519 18.5473C21.8341 17.2382 22.5588 15.6088 21.7253 11.7086C21.5517 10.8964 21.1244 10.4308 20.4184 10.2857C20.3776 10.2773 20.3364 10.2703 20.295 10.2642C20.2557 10.2583 20.2159 10.2538 20.176 10.2497C20.1751 10.2496 20.1743 10.2494 20.1734 10.2494C18.7321 10.1036 16.9275 11.1282 16.599 11.4627C16.6022 11.555 16.6097 11.6814 16.6184 11.8302C16.6695 12.7009 16.7644 14.3214 16.5076 16.1798C16.3184 17.5489 16.7319 18.8853 17.6421 19.8465C18.2967 20.5377 19.1401 20.9463 20.0202 21.0166C20.0209 21.0166 20.0215 21.0166 20.0223 21.0167C20.0791 21.0211 20.136 21.0244 20.1931 21.0261C20.2511 21.028 20.3094 21.0283 20.3675 21.0271C20.472 20.558 20.6555 20.0601 20.8539 19.5216ZM19.8303 11.8381C19.6939 11.745 19.6022 11.635 19.5671 11.5879C19.4814 11.4729 19.4361 11.3615 19.4461 11.2897L19.4502 11.271C19.4856 11.1421 19.7019 11.0599 20.0115 11.0599C20.0597 11.0599 20.109 11.0624 20.1589 11.0665C20.1969 11.0696 20.2351 11.0734 20.2737 11.0788C20.2769 11.0793 20.2795 11.0799 20.2826 11.0804H20.2825C20.4854 11.1099 20.6719 11.1681 20.8083 11.2453C20.9528 11.327 21.0255 11.4214 21.0132 11.5111C20.9902 11.6788 20.6746 11.9887 20.2853 11.9887C20.2521 11.9887 20.2186 11.9864 20.1857 11.9817C20.0467 11.9622 19.9285 11.9049 19.8319 11.8391C19.8313 11.8388 19.8308 11.8384 19.8303 11.8381ZM33.246 11.6977C33.3239 11.1868 33.3971 10.6989 33.3971 10.1501C32.0656 9.96972 31.1019 10.0759 30.5164 10.4637C30.5052 10.4711 30.4935 10.4783 30.4825 10.4859C30.4582 10.5029 30.4352 10.5207 30.4119 10.5387C30.3939 10.5528 30.3762 10.567 30.3591 10.5819C30.3408 10.5976 30.3228 10.6135 30.3057 10.6299C30.2838 10.6501 30.2639 10.6713 30.2441 10.6925C30.2317 10.7058 30.2187 10.7189 30.2068 10.7325C30.1757 10.7689 30.1458 10.8065 30.1186 10.8459C29.0364 12.4113 31.0962 16.1495 31.9756 17.7458C32.1973 18.1478 32.3574 18.4383 32.429 18.6146C32.5437 18.8958 32.6716 19.1391 32.8033 19.3555C33.5206 17.9805 33.3593 16.5939 33.1997 15.2489C33.122 14.5969 33.0489 13.9808 33.0687 13.3651C33.089 12.7304 33.1689 12.2054 33.246 11.6977ZM31.4559 11.6398C31.0792 11.6398 30.7606 11.332 30.7382 11.1718C30.724 11.0651 30.8386 10.9551 31.0278 10.8715C31.0396 10.8664 31.0518 10.8613 31.064 10.8563C31.1785 10.8101 31.3165 10.7732 31.4687 10.7517C31.5573 10.7392 31.6452 10.7329 31.7296 10.7329C32.0479 10.7329 32.2657 10.8194 32.2844 10.9534C32.299 11.0613 32.1793 11.2681 31.9892 11.4267C31.9755 11.438 31.9616 11.4489 31.9474 11.4596C31.8338 11.5455 31.699 11.6127 31.5541 11.6331C31.522 11.6376 31.489 11.6398 31.4559 11.6398ZM17.0158 21.3465C16.819 21.5636 16.5892 21.8203 16.3353 22.1084C15.867 22.6399 15.3193 23.2759 14.7537 23.9647C13.9035 24.9992 13.2956 24.7937 13.0961 24.7265C10.1629 23.7365 7.6461 12.0026 7.53239 9.7014C7.37703 6.55593 8.13641 4.35951 9.78966 3.17323C12.3282 1.35165 16.3953 2.28446 18.3077 2.87979C18.3201 2.88368 18.3318 2.88737 18.344 2.89115C18.4096 2.91168 18.4722 2.9317 18.5323 2.95133C18.5456 2.95562 18.5589 2.9599 18.5719 2.96419C18.6436 2.9876 18.7125 3.01052 18.7754 3.03204C18.7057 3.0975 18.6362 3.16356 18.5689 3.23261C18.3075 3.49994 18.0711 3.7851 17.8569 4.08232C17.8133 4.1426 17.7723 4.20418 17.7306 4.26546C17.7058 4.30202 17.68 4.33819 17.6559 4.37506C17.6169 4.43434 17.5799 4.49432 17.5427 4.55431C17.518 4.59426 17.4926 4.63402 17.4685 4.67427C17.4328 4.73395 17.3984 4.79433 17.3643 4.85461C17.3411 4.89576 17.3173 4.93692 17.2946 4.97836C17.2615 5.03894 17.2294 5.09992 17.1977 5.1611C17.1759 5.20285 17.1545 5.2447 17.1335 5.28654C17.1027 5.34812 17.0728 5.4098 17.0433 5.47177C17.0234 5.51352 17.004 5.55537 16.9849 5.59731C16.9562 5.65989 16.9278 5.72266 16.9006 5.78553C16.8829 5.82648 16.8657 5.86743 16.8486 5.90828C16.8216 5.97265 16.7948 6.03712 16.7691 6.10148C16.754 6.13984 16.7396 6.1782 16.7247 6.21656C16.699 6.28372 16.6731 6.35098 16.6487 6.41813C16.637 6.45061 16.6261 6.483 16.6146 6.51548C16.5889 6.58841 16.563 6.66145 16.5388 6.73418C16.5359 6.74275 16.5333 6.75132 16.5306 6.75989C16.4414 7.0311 16.3636 7.30012 16.2952 7.56466C16.2888 7.58947 16.2817 7.61448 16.2756 7.63919C16.2581 7.70814 16.242 7.77629 16.2258 7.84465C16.2181 7.87753 16.21 7.91061 16.2024 7.94339C16.1876 8.00795 16.1738 8.07192 16.1601 8.13569C16.1524 8.17076 16.1448 8.20603 16.1376 8.2409C16.1247 8.30278 16.1126 8.36386 16.1008 8.42484C16.0938 8.46041 16.087 8.49608 16.0804 8.53135C16.0692 8.59083 16.0586 8.64982 16.0483 8.70831C16.0422 8.74348 16.0363 8.77845 16.0304 8.81322C16.0208 8.87082 16.0114 8.92801 16.0025 8.9845C15.9972 9.01818 15.9923 9.05136 15.9873 9.08454C15.9789 9.14073 15.9707 9.19663 15.963 9.25143C15.9585 9.28292 15.9545 9.31371 15.9505 9.34489C15.9433 9.39949 15.9359 9.45419 15.9295 9.5072C15.9261 9.5354 15.9231 9.5625 15.92 9.5902C15.9136 9.6447 15.9072 9.6996 15.9014 9.75231C15.9002 9.76397 15.8993 9.77503 15.898 9.78659C15.8843 9.91791 15.8726 10.0434 15.8631 10.1619C15.8625 10.1703 15.8617 10.1794 15.861 10.1876C15.8575 10.2328 15.8546 10.2753 15.8515 10.3184C15.8497 10.3434 15.8477 10.3694 15.8461 10.3938C15.8436 10.432 15.8416 10.4682 15.8394 10.5046C15.8377 10.5311 15.8362 10.5582 15.8349 10.5835C15.833 10.6173 15.8316 10.6493 15.8302 10.681C15.829 10.7063 15.8277 10.7318 15.8268 10.756C15.8256 10.7855 15.8246 10.8137 15.8237 10.8413C15.8228 10.8647 15.822 10.8879 15.8213 10.91C15.8206 10.9351 15.82 10.9595 15.8194 10.9827C15.8188 11.0048 15.8184 11.0259 15.8182 11.0461C15.8178 11.066 15.8175 11.086 15.8171 11.1043C15.8169 11.1243 15.8167 11.1429 15.8166 11.1607C15.8166 11.1763 15.8163 11.1923 15.8163 11.2063C15.8163 11.2238 15.8163 11.2392 15.8163 11.2542C15.8163 11.2647 15.8163 11.2764 15.8164 11.2856C15.8165 11.3013 15.8166 11.3139 15.8168 11.3258C15.8168 11.331 15.8169 11.3378 15.8169 11.3423C15.8172 11.3568 15.8175 11.368 15.8177 11.3746C15.8177 11.4885 15.827 11.6517 15.8402 11.8765C15.8895 12.7198 15.9815 14.2894 15.7354 16.0702C15.7228 16.1618 15.7132 16.2532 15.7051 16.3443C15.702 16.379 15.7001 16.4134 15.6977 16.4481C15.6939 16.503 15.6907 16.5579 15.6885 16.6125C15.6867 16.657 15.6855 16.7015 15.685 16.746C15.6844 16.7875 15.6845 16.8288 15.6848 16.8702C15.6852 16.9232 15.6858 16.9762 15.6877 17.0289C15.6886 17.0517 15.6903 17.0743 15.6913 17.097C15.7067 17.4001 15.7466 17.6987 15.8112 17.9901C15.8113 17.9912 15.8117 17.9922 15.8118 17.9933C16.0116 18.8906 16.4415 19.7186 17.0794 20.3921C17.2182 20.5386 17.3647 20.6734 17.5169 20.7986C17.4971 20.82 17.4744 20.8446 17.4519 20.869C17.4407 20.8812 17.4303 20.8925 17.4183 20.9053C17.4016 20.9235 17.3829 20.9439 17.3648 20.9636C17.344 20.9861 17.3236 21.0085 17.3013 21.0329C17.2903 21.0447 17.2784 21.0578 17.267 21.0701C17.2353 21.1048 17.2029 21.1402 17.1683 21.1781C17.1623 21.1847 17.156 21.1918 17.1498 21.1984C17.1092 21.2429 17.0672 21.2893 17.0229 21.3379C17.0207 21.341 17.0181 21.3438 17.0158 21.3465ZM28.5362 1.86468C28.5381 1.86429 28.5402 1.86399 28.542 1.86359C29.1442 1.76415 29.8628 1.68783 30.6538 1.68783C33.7104 1.68783 36.1211 2.80078 37.8185 4.9958C38.481 5.85259 38.4228 8.31245 37.6698 11.2625C36.9327 14.1512 35.6291 17.2272 34.0305 19.8907C34.0248 19.9 34.0193 19.9094 34.0137 19.9187C33.8935 20.1187 33.7719 20.3169 33.6481 20.5119C33.5722 20.4072 33.4888 20.3008 33.4008 20.1893C33.3688 20.1488 33.3354 20.1068 33.302 20.0641C34.3537 18.3596 34.1521 16.6597 33.9734 15.1548C33.8996 14.5333 33.8298 13.9464 33.8476 13.3904C33.8661 12.8032 33.9425 12.3023 34.0163 11.8178C34.1108 11.1972 34.1988 10.6079 34.1711 9.88852C34.1894 9.82186 34.1978 9.74155 34.1887 9.64311C34.1252 8.96168 33.3516 6.91682 31.7728 5.05678C30.8703 3.99374 29.5357 2.79839 27.6957 2.03188C27.774 2.01354 27.8567 1.99511 27.9427 1.97678C27.9475 1.97578 27.9521 1.97468 27.9569 1.97369C28.0434 1.95535 28.1338 1.93732 28.2274 1.91948C28.2311 1.91879 28.235 1.91799 28.2388 1.91729C28.3344 1.89926 28.4337 1.88162 28.5362 1.86468ZM22.5105 22.8669C22.5571 23.0316 22.6086 23.3456 22.4305 23.5982C22.3775 23.673 22.3232 23.7448 22.2676 23.8147C22.2584 23.8263 22.2486 23.8374 22.2392 23.849C22.1909 23.9085 22.1417 23.9666 22.0915 24.0224C22.0856 24.0289 22.0795 24.0351 22.0736 24.0418C22.0182 24.1025 21.9616 24.1609 21.9037 24.2174C21.9021 24.2191 21.9004 24.2205 21.8987 24.2221C21.8373 24.2818 21.7745 24.3391 21.7103 24.3937C21.71 24.394 21.7095 24.3944 21.7091 24.3948V24.3947C21.0261 24.9768 20.1942 25.2722 19.2231 25.2722C18.8099 25.2722 18.3726 25.2158 17.9228 25.108C17.8952 25.1014 17.8681 25.0966 17.8403 25.0896C17.4458 24.9897 17.1142 24.7939 17.007 24.6743C17.0861 24.6136 17.3099 24.4862 17.8885 24.3655C19.6682 23.9946 19.9218 23.7541 20.5269 22.9767C20.668 22.7954 20.8279 22.5898 21.0504 22.3385C21.3341 22.0171 21.5142 22.0171 21.5734 22.0171C21.6821 22.0171 21.7923 22.0596 21.9248 22.1153C22.174 22.2196 22.4149 22.5288 22.5105 22.8669Z" fill="#61656B"/>
</svg>
