<svg width="30" height="26" viewBox="0 0 30 26" fill="none" xmlns="http://www.w3.org/2000/svg">
<path fill-rule="evenodd" clip-rule="evenodd" d="M2.06234 11.2623C10.1154 7.73426 15.4854 5.40834 18.1722 4.28456C25.8438 1.07597 27.4379 0.518601 28.4769 0.500196C28.7054 0.496148 29.2163 0.553097 29.5473 0.82315C29.8268 1.05118 29.9037 1.35921 29.9405 1.57541C29.9773 1.7916 30.0231 2.2841 29.9867 2.66893C29.5709 7.06125 27.7721 17.7203 26.857 22.6397C26.4697 24.7214 25.7073 25.4193 24.9691 25.4876C23.3649 25.6361 22.1467 24.4216 20.593 23.3974C18.1617 21.7948 16.7882 20.7972 14.4282 19.2333C11.7008 17.426 13.4688 16.4327 15.0232 14.8094C15.4299 14.3845 22.4981 7.91981 22.6349 7.33335C22.652 7.26001 22.6679 6.98661 22.5063 6.84225C22.3448 6.69788 22.1064 6.74725 21.9344 6.78651C21.6905 6.84216 17.8065 9.42363 10.2823 14.5309C9.17983 15.2921 8.18124 15.6631 7.28655 15.6436C6.30022 15.6222 4.40291 15.0828 2.99246 14.6218C1.26249 14.0563 -0.112459 13.7574 0.00726778 12.797C0.0696291 12.2968 0.754654 11.7853 2.06234 11.2623Z" fill="#0DA4F5"/>
</svg>
